<?xml version="1.0" encoding="UTF-8" standalone="no"?>
<!-- Created with Inkscape (http://www.inkscape.org/) -->

<svg
   xmlns:osb="http://www.openswatchbook.org/uri/2009/osb"
   xmlns:dc="http://purl.org/dc/elements/1.1/"
   xmlns:cc="http://creativecommons.org/ns#"
   xmlns:rdf="http://www.w3.org/1999/02/22-rdf-syntax-ns#"
   xmlns:svg="http://www.w3.org/2000/svg"
   xmlns="http://www.w3.org/2000/svg"
   xmlns:sodipodi="http://sodipodi.sourceforge.net/DTD/sodipodi-0.dtd"
   xmlns:inkscape="http://www.inkscape.org/namespaces/inkscape"
   width="1920mm"
   height="1080mm"
   viewBox="0 0 1920 1080"
   version="1.1"
   id="svg8"
   inkscape:version="0.92.4 (5da689c313, 2019-01-14)"
   sodipodi:docname="fractallogo.svg">
  <defs
     id="defs2">
    <linearGradient
       id="linearGradient920"
       osb:paint="solid">
      <stop
         style="stop-color:#000000;stop-opacity:1;"
         offset="0"
         id="stop918" />
    </linearGradient>
  </defs>
  <sodipodi:namedview
     id="base"
     pagecolor="#ffffff"
     bordercolor="#666666"
     borderopacity="1.0"
     inkscape:pageopacity="0.0"
     inkscape:pageshadow="2"
     inkscape:zoom="0.056568542"
     inkscape:cx="2715.133"
     inkscape:cy="3864.2762"
     inkscape:document-units="mm"
     inkscape:current-layer="layer2"
     showgrid="false"
     inkscape:window-width="1059"
     inkscape:window-height="991"
     inkscape:window-x="-11"
     inkscape:window-y="0"
     inkscape:window-maximized="1" />
  <metadata
     id="metadata5">
    <rdf:RDF>
      <cc:Work
         rdf:about="">
        <dc:format>image/svg+xml</dc:format>
        <dc:type
           rdf:resource="http://purl.org/dc/dcmitype/StillImage" />
        <dc:title />
      </cc:Work>
    </rdf:RDF>
  </metadata>
  <g
     inkscape:label="Layer 1"
     inkscape:groupmode="layer"
     id="layer1"
     transform="translate(0,783)">
    <rect
       style="fill:#000000;fill-opacity:1;fill-rule:nonzero;stroke:none;stroke-width:15.60397625;stroke-miterlimit:4;stroke-dasharray:none;stroke-opacity:1"
       id="rect916"
       width="1801.5747"
       height="524.349"
       x="-0.59682804"
       y="-479.04205" />
  </g>
  <g
     inkscape:groupmode="layer"
     id="layer2"
     inkscape:label="Layer 2">
    <path
       id="path3800"
       style="fill:none;fill-opacity:1;stroke:#c80000;stroke-width:5;stroke-linecap:butt;stroke-linejoin:miter;stroke-miterlimit:4;stroke-dasharray:none;stroke-opacity:1"
       d="m 986.98996,563.37644 0.94254,-0.94255 -0.34498,-1.28755 1.28754,0.34499 0.94255,-0.94255 -0.34499,-1.28754 -1.28755,-0.34499 0.94255,-0.94256 -0.34501,-1.28755 1.28756,0.34501 0.94255,-0.94255 0.34499,1.28754 1.28755,0.345 0.94256,-0.94255 -0.345,-1.28754 1.28754,0.34498 0.94255,-0.94254 -0.34499,-1.28755 -1.28755,-0.34499 0.94255,-0.94256 -0.34501,-1.28755 -1.28755,-0.345 -0.94255,0.94255 -0.34499,-1.28755 -1.28754,-0.34499 0.94254,-0.94255 -0.34499,-1.28755 1.28754,0.345 0.94256,-0.94255 -0.345,-1.28755 -1.28755,-0.34499 0.94256,-0.94255 -0.34502,-1.28757 1.28756,0.34501 0.94255,-0.94254 0.345,1.28755 1.28755,0.34498 0.94255,-0.94254 -0.34499,-1.28755 1.28753,0.34499 0.94256,-0.94255 0.34499,1.28755 1.28758,0.34499 -0.94258,0.94256 0.34498,1.28754 1.2876,0.34502 0.9425,-0.94257 0.345,1.28756 1.2876,0.34499 0.9425,-0.94255 -0.345,-1.28754 1.2876,0.34499 0.9425,-0.94254 -0.345,-1.28755 -1.2875,-0.34501 0.9425,-0.94254 -0.345,-1.28756 1.2876,0.34501 0.9425,-0.94255 0.345,1.28754 1.2876,0.345 0.9425,-0.94256 -0.345,-1.28754 1.2876,0.345 0.9425,-0.94255 -0.345,-1.28754 -1.2875,-0.345 0.9425,-0.94255 -0.345,-1.28757 -1.2875,-0.34499 -0.9426,0.94255 -0.345,-1.28754 -1.2875,-0.345 0.9425,-0.94255 -0.345,-1.28754 1.2876,0.34499 0.9425,-0.94255 -0.345,-1.28754 -1.2875,-0.345 0.9425,-0.94255 -0.345,-1.28756 -1.2875,-0.345 -0.9426,0.94255 -0.345,-1.28753 -1.2875,-0.34501 -0.9426,0.94256 0.345,1.28754 -1.2875,-0.34499 -0.9426,0.94255 -0.3449,-1.28755 -1.2876,-0.345 0.9425,-0.94255 -0.345,-1.28755 -1.2875,-0.345 -0.94255,0.94255 -0.345,-1.28754 -1.28753,-0.34499 0.94255,-0.94256 -0.345,-1.28755 1.28754,0.34501 0.94259,-0.94256 -0.345,-1.28754 -1.28759,-0.34502 0.94254,-0.94254 -0.34499,-1.28755 1.28754,0.345 0.9426,-0.94256 0.345,1.28757 1.2875,0.34499 0.9426,-0.94254 -0.345,-1.28755 1.2875,0.345 0.9426,-0.94256 -0.345,-1.28754 -1.2876,-0.34502 0.9426,-0.94254 -0.345,-1.28755 -1.2876,-0.34499 -0.9425,0.94255 -0.345,-1.28755 -1.2876,-0.34499 0.9426,-0.94255 -0.345,-1.28756 1.2875,0.34501 0.9426,-0.94255 -0.345,-1.28756 -1.2876,-0.345 0.9426,-0.94255 -0.345,-1.28754 1.2875,0.34499 0.9426,-0.94255 0.345,1.28755 1.2875,0.34501 0.9426,-0.94256 -0.345,-1.28755 1.2875,0.34501 0.9426,-0.94255 0.345,1.28753 1.2875,0.34501 -0.9425,0.94254 0.345,1.28755 1.2875,0.34499 0.9426,-0.94255 0.345,1.28757 1.2875,0.34499 0.9426,-0.94255 -0.345,-1.28754 1.2875,0.34499 0.9426,-0.94255 -0.345,-1.28755 -1.2876,-0.34501 0.9426,-0.94255 -0.345,-1.28754 1.2875,0.34499 0.9425,-0.94254 0.3451,1.28756 1.2875,0.345 0.9426,-0.94255 -0.345,-1.28755 1.2875,0.34499 0.9426,-0.94254 0.345,1.28754 1.2875,0.345 -0.9425,0.94254 0.3449,1.28755 1.2876,0.34499 0.9425,-0.94255 0.3451,1.28756 1.2875,0.345 -0.9426,0.94254 0.345,1.28755 -1.2875,-0.345 -0.9426,0.94256 0.345,1.28754 1.2876,0.345 -0.9426,0.94254 0.345,1.28754 1.2876,0.34501 0.9425,-0.94254 0.345,1.28754 1.2876,0.345 0.9425,-0.94255 -0.345,-1.28754 1.2876,0.34499 0.9425,-0.94255 0.345,1.28754 1.2876,0.34501 -0.9426,0.94253 0.345,1.28756 1.2876,0.345 0.9425,-0.94254 0.345,1.28754 1.2876,0.345 0.9425,-0.94255 -0.345,-1.28754 1.2876,0.34497 0.9425,-0.94253 -0.345,-1.28756 -1.2875,-0.34498 0.9425,-0.94256 -0.345,-1.28755 1.2876,0.34499 0.9425,-0.94253 0.345,1.28753 1.2876,0.34501 0.9425,-0.94256 -0.345,-1.28753 1.2876,0.34497 0.9425,-0.94253 -0.345,-1.28756 -1.2875,-0.34498 0.9425,-0.94256 -0.345,-1.28756 -1.2875,-0.345 -0.9426,0.94256 -0.345,-1.28755 -1.2875,-0.34499 0.9425,-0.94256 -0.345,-1.28753 1.2876,0.34498 0.9425,-0.94254 -0.345,-1.28756 -1.2875,-0.34498 0.9425,-0.94256 -0.345,-1.28755 1.2876,0.345 0.9425,-0.94254 0.345,1.28755 1.2876,0.34499 0.9425,-0.94255 -0.345,-1.28755 1.2876,0.34498 0.9425,-0.94253 0.345,1.28754 1.2876,0.345 -0.9426,0.94254 0.345,1.28755 1.2876,0.345 0.9425,-0.94254 0.345,1.28754 1.2876,0.34501 0.9425,-0.94257 -0.345,-1.28754 1.2876,0.34499 0.9425,-0.94254 -0.345,-1.28755 -1.2875,-0.34499 0.9425,-0.94255 -0.345,-1.28756 1.2876,0.345 0.9425,-0.94254 0.345,1.28754 1.2876,0.345 0.9425,-0.94256 -0.345,-1.28754 1.2876,0.34499 0.9425,-0.94254 -0.345,-1.28755 -1.2875,-0.34499 0.9425,-0.94256 -0.345,-1.28755 -1.2875,-0.345 -0.9426,0.94255 -0.345,-1.28756 -1.2875,-0.34497 0.9425,-0.94256 -0.345,-1.28753 1.2876,0.34497 0.9425,-0.94253 -0.3449,-1.28756 -1.2876,-0.34499 0.9425,-0.94255 -0.345,-1.28756 -1.2875,-0.345 -0.9426,0.94255 -0.3449,-1.28755 -1.2876,-0.34498 -0.9425,0.94254 0.3449,1.28755 -1.2875,-0.34499 -0.9426,0.94255 -0.3449,-1.28756 -1.2876,-0.345 0.9426,-0.94255 -0.3451,-1.28754 -1.2875,-0.345 -0.9425,0.94256 -0.345,-1.28756 -1.2876,-0.34499 0.9426,-0.94255 -0.345,-1.28754 1.2875,0.34499 0.9426,-0.94254 -0.345,-1.28756 -1.2876,-0.345 0.9426,-0.94256 -0.345,-1.28754 1.2875,0.34499 0.9426,-0.94254 0.345,1.28755 1.2875,0.34501 0.9426,-0.94256 -0.345,-1.28754 1.2875,0.34499 0.9426,-0.94254 -0.345,-1.28756 -1.2876,-0.345 0.9426,-0.94256 -0.345,-1.28754 -1.2876,-0.34499 -0.9425,0.94255 -0.345,-1.28756 -1.2876,-0.34497 0.9426,-0.94257 -0.345,-1.28755 1.2876,0.345 0.9425,-0.94254 -0.345,-1.28757 -1.2876,-0.34499 0.9426,-0.94255 -0.345,-1.28754 -1.2876,-0.345 -0.9425,0.94256 -0.345,-1.28757 -1.2875,-0.34498 -0.9426,0.94254 0.345,1.28756 -1.2875,-0.34499 -0.9426,0.94255 -0.345,-1.28759 -1.2876,-0.34496 0.9426,-0.94257 -0.345,-1.28753 -1.2875,-0.34501 -0.9426,0.94256 -0.345,-1.28755 -1.2875,-0.34499 -0.9426,0.94254 0.345,1.28755 -1.2875,-0.34499 -0.9426,0.94255 0.345,1.28754 1.2876,0.34501 -0.9426,0.94253 0.345,1.28756 -1.2875,-0.345 -0.9426,0.94256 -0.345,-1.28756 -1.2875,-0.34499 -0.9426,0.94255 0.345,1.28755 -1.2875,-0.345 -0.9426,0.94255 -0.345,-1.28757 -1.2875,-0.34498 0.9425,-0.94255 -0.345,-1.28754 -1.2875,-0.345 -0.9426,0.94255 -0.345,-1.28756 -1.2875,-0.34498 0.9425,-0.94256 -0.345,-1.28755 1.2876,0.345 0.9425,-0.94254 -0.345,-1.28758 -1.2875,-0.34497 0.9425,-0.94256 -0.345,-1.28755 -1.2875,-0.34499 -0.9426,0.94255 -0.3449,-1.28755 -1.2876,-0.345 -0.9426,0.94254 0.345,1.28757 -1.2875,-0.34502 -0.9426,0.94255 -0.345,-1.28755 -1.2875,-0.34498 0.9425,-0.94255 -0.345,-1.28754 -1.2875,-0.34501 -0.9425,0.94256 -0.345,-1.28755 -1.2876,-0.345 0.9426,-0.94256 -0.345,-1.28754 1.2875,0.34499 0.9425,-0.94255 -0.3449,-1.28755 -1.2876,-0.34498 0.9426,-0.94256 -0.345,-1.28754 1.2875,0.34499 0.9426,-0.94254 0.345,1.28753 1.2875,0.345 0.9426,-0.94256 -0.345,-1.28753 1.2875,0.34498 0.9425,-0.94254 -0.3449,-1.28755 -1.2876,-0.34498 0.9426,-0.94256 -0.345,-1.28754 -1.2876,-0.345 -0.9425,0.94256 -0.345,-1.28758 -1.2876,-0.34498 0.9426,-0.94256 -0.345,-1.28754 1.2875,0.34499 0.9426,-0.94254 -0.345,-1.28756 -1.2876,-0.34498 0.9426,-0.94255 -0.345,-1.28754 1.2875,0.34498 0.9426,-0.94254 0.345,1.28754 1.2875,0.345 0.9426,-0.94256 -0.345,-1.28754 1.2875,0.34499 0.9426,-0.94255 0.345,1.28754 1.2875,0.34503 -0.9425,0.94253 0.345,1.28757 1.2875,0.34497 0.9426,-0.94253 0.345,1.28753 1.2875,0.345 0.9426,-0.94256 -0.345,-1.28753 1.2875,0.34499 0.9425,-0.94255 -0.3449,-1.28756 -1.2876,-0.34497 0.9426,-0.94256 -0.345,-1.28754 1.2875,0.34498 0.9426,-0.94253 0.345,1.28754 1.2875,0.34499 0.9426,-0.94255 -0.345,-1.28754 1.2875,0.34497 0.9425,-0.94253 -0.3449,-1.28756 -1.2876,-0.34498 0.9426,-0.94256 -0.345,-1.28753 -1.2876,-0.34501 -0.9425,0.94256 -0.345,-1.28758 -1.2876,-0.34497 0.9426,-0.94256 -0.345,-1.28754 1.2875,0.34498 0.9426,-0.94254 -0.345,-1.28755 -1.2876,-0.34498 0.9426,-0.94256 -0.345,-1.28754 -1.2876,-0.34501 -0.9425,0.94257 -0.345,-1.28758 -1.2876,-0.34497 -0.9425,0.94253 0.345,1.28756 -1.2876,-0.34501 -0.9425,0.94257 -0.345,-1.28756 -1.2875,-0.34498 0.9425,-0.94256 -0.345,-1.28754 -1.2875,-0.345 -0.9426,0.94256 -0.345,-1.28758 -1.2876,-0.34498 0.9426,-0.94256 -0.345,-1.28753 1.2876,0.34497 0.9425,-0.94253 -0.345,-1.28756 -1.2875,-0.34498 0.9425,-0.94257 -0.345,-1.28753 1.2876,0.34498 0.9425,-0.94253 0.345,1.28753 1.2876,0.34501 0.9425,-0.94256 -0.345,-1.28754 1.2876,0.34498 0.9425,-0.94254 -0.345,-1.28756 -1.2875,-0.34498 0.9425,-0.94255 -0.345,-1.28754 -1.2875,-0.34502 -0.9426,0.94256 -0.345,-1.28755 -1.2875,-0.34499 0.9425,-0.94255 -0.345,-1.28754 1.2876,0.34498 0.9425,-0.94254 -0.345,-1.28756 -1.2875,-0.34498 0.9425,-0.94256 -0.345,-1.28753 1.2876,0.34498 0.9425,-0.94254 0.345,1.28754 1.2876,0.345 0.9425,-0.94256 -0.345,-1.28753 1.2876,0.34497 0.9425,-0.94253 0.345,1.28754 1.2876,0.34499 -0.9426,0.94255 0.345,1.28757 1.2876,0.34499 0.9425,-0.94255 0.345,1.28754 1.2876,0.345 0.9425,-0.94256 -0.345,-1.28754 1.2876,0.34499 0.9425,-0.94254 -0.345,-1.28755 -1.2875,-0.34499 0.9425,-0.94255 -0.345,-1.28755 1.2876,0.34501 0.9425,-0.94256 0.345,1.28754 1.2876,0.345 0.9425,-0.94256 -0.345,-1.28753 1.2875,0.345 0.9426,-0.94256 0.345,1.28753 1.2876,0.34503 -0.9426,0.94256 0.345,1.28753 1.2876,0.345 0.9425,-0.94255 0.345,1.28754 1.2875,0.34499 -0.9425,0.94256 0.345,1.28753 -1.2875,-0.34499 -0.9426,0.94255 0.345,1.28754 1.2875,0.34502 -0.9425,0.94256 0.345,1.28753 1.2875,0.34501 0.9426,-0.94256 0.345,1.28753 1.2875,0.34501 0.9426,-0.94255 -0.345,-1.28755 1.2875,0.345 0.9426,-0.94256 0.345,1.28755 1.2875,0.34501 -0.9425,0.94256 0.345,1.28754 1.2875,0.345 0.9426,-0.94256 0.345,1.28754 1.2875,0.345 0.9426,-0.94256 -0.345,-1.28754 1.2875,0.34501 0.9426,-0.94257 -0.345,-1.28752 -1.2876,-0.34501 0.9426,-0.94255 -0.345,-1.28754 1.2875,0.34499 0.9426,-0.94255 0.345,1.28754 1.2875,0.345 0.9426,-0.94256 -0.345,-1.28754 1.2875,0.34501 0.9426,-0.94257 -0.345,-1.28754 -1.2876,-0.34499 0.9426,-0.94255 -0.345,-1.28754 -1.2876,-0.34501 -0.9425,0.94256 -0.345,-1.28756 -1.2876,-0.34499 0.9426,-0.94256 -0.345,-1.28754 1.2875,0.345 0.9426,-0.94255 -0.345,-1.28754 -1.2876,-0.34501 0.9426,-0.94255 -0.345,-1.28754 1.2875,0.345 0.9426,-0.94256 0.345,1.28754 1.2875,0.345 0.9426,-0.94256 -0.345,-1.28754 1.2875,0.34501 0.9426,-0.94256 0.345,1.28754 1.2875,0.34502 -0.9425,0.94255 0.345,1.28755 1.2875,0.34499 0.9426,-0.94255 0.345,1.28754 1.2875,0.34499 0.9426,-0.94255 -0.345,-1.28753 1.2875,0.34499 0.9426,-0.94255 -0.345,-1.28755 -1.2876,-0.34499 0.9426,-0.94256 -0.345,-1.28753 1.2875,0.34499 0.9426,-0.94255 0.345,1.28754 1.2875,0.345 0.9426,-0.94256 -0.345,-1.28754 1.2875,0.34499 0.9426,-0.94255 0.345,1.28756 1.2875,0.345 -0.9425,0.94255 0.345,1.28754 1.2875,0.345 0.9426,-0.94256 0.345,1.28754 1.2875,0.34501 -0.9426,0.94255 0.3451,1.28756 -1.2876,-0.34503 -0.9426,0.94257 0.3451,1.28755 1.2875,0.34501 -0.9425,0.94255 0.345,1.28754 1.2875,0.345 0.9425,-0.94255 0.345,1.28753 1.2876,0.34502 0.9426,-0.94256 -0.3451,-1.28755 1.2876,0.34501 0.9426,-0.94256 0.345,1.28755 1.2875,0.345 -0.9426,0.94256 0.345,1.28754 1.2876,0.34499 0.9425,-0.94255 0.345,1.28754 1.2876,0.34501 -0.9426,0.94255 0.345,1.28755 -1.2875,-0.34501 -0.9426,0.94256 0.345,1.28755 1.2876,0.34499 -0.9426,0.94256 0.345,1.28753 -1.2875,-0.34499 -0.9426,0.94255 -0.345,-1.28754 -1.2875,-0.345 -0.9426,0.94255 0.345,1.28755 -1.2875,-0.345 -0.9426,0.94255 0.345,1.28755 1.2876,0.34499 -0.9426,0.94256 0.345,1.28754 1.2876,0.345 0.9425,-0.94255 0.345,1.28753 1.2876,0.34502 -0.9426,0.94255 0.345,1.28754 -1.2875,-0.345 -0.9426,0.94256 0.345,1.28755 1.2876,0.34499 -0.9426,0.94255 0.345,1.28754 1.2875,0.34501 0.9426,-0.94256 0.345,1.28753 1.2875,0.34502 0.9426,-0.94255 -0.345,-1.28756 1.2875,0.34502 0.9426,-0.94256 0.345,1.28754 1.2875,0.345 -0.9425,0.94256 0.345,1.28753 1.2875,0.345 0.9426,-0.94256 0.345,1.28757 1.2875,0.345 0.9426,-0.94255 -0.345,-1.28755 1.2875,0.345 0.9426,-0.94255 -0.345,-1.28755 -1.2876,-0.34501 0.9426,-0.94256 -0.345,-1.28753 1.2875,0.34499 0.9426,-0.94255 0.345,1.28756 1.2875,0.345 0.9426,-0.94256 -0.345,-1.28754 1.2875,0.345 0.9426,-0.94255 0.345,1.28754 1.2875,0.34499 -0.9425,0.94255 0.345,1.28754 1.2875,0.34501 0.9426,-0.94256 0.345,1.28756 1.2875,0.345 -0.9425,0.94255 0.345,1.28755 -1.2876,-0.34501 -0.9425,0.94257 0.345,1.28753 1.2875,0.34499 -0.9425,0.94256 0.345,1.28753 1.2875,0.34503 0.9426,-0.94256 0.345,1.28755 1.2875,0.34499 0.9426,-0.94255 -0.345,-1.28754 1.2875,0.345 0.9426,-0.94256 0.345,1.28754 1.2875,0.345 -0.9426,0.94255 0.345,1.28755 1.2876,0.34501 0.9426,-0.94255 0.345,1.28754 1.2875,0.34499 0.9426,-0.94255 -0.3451,-1.28753 1.2876,0.34499 0.9425,-0.94255 -0.345,-1.28754 -1.2875,-0.345 0.9426,-0.94256 -0.3451,-1.28755 1.2876,0.34501 0.9426,-0.94255 0.345,1.28753 1.2875,0.34501 0.9426,-0.94256 -0.3451,-1.28753 1.2876,0.34499 0.9425,-0.94255 -0.345,-1.28754 -1.2875,-0.34501 0.9426,-0.94256 -0.3451,-1.28755 -1.2875,-0.345 -0.9426,0.94255 -0.3449,-1.28753 -1.2876,-0.345 0.9426,-0.94255 -0.345,-1.28754 1.2875,0.34499 0.9426,-0.94255 -0.345,-1.28754 -1.2876,-0.345 0.9426,-0.94256 -0.345,-1.28755 1.2875,0.34501 0.9426,-0.94255 0.345,1.28754 1.2875,0.345 0.9426,-0.94256 -0.345,-1.28753 1.2875,0.34499 0.9426,-0.94255 0.345,1.28754 1.2875,0.34499 -0.9426,0.94256 0.345,1.28754 1.2876,0.34502 0.9426,-0.94257 0.345,1.28755 1.2875,0.34501 0.9426,-0.94257 -0.3451,-1.28753 1.2876,0.345 0.9426,-0.94256 -0.3451,-1.28754 -1.2875,-0.345 0.9426,-0.94256 -0.3451,-1.28755 1.2876,0.34501 0.9426,-0.94255 0.345,1.28754 1.2875,0.345 0.9426,-0.94256 -0.345,-1.28754 1.2875,0.34501 0.9426,-0.94257 -0.3451,-1.28753 -1.2875,-0.34501 0.9426,-0.94254 -0.345,-1.28756 -1.2876,-0.345 -0.9425,0.94255 -0.345,-1.28754 -1.2876,-0.345 0.9426,-0.94256 -0.345,-1.28752 1.2875,0.34499 0.9426,-0.94255 -0.345,-1.28755 -1.2876,-0.345 0.9426,-0.94255 -0.345,-1.28757 -1.2876,-0.34499 -0.9425,0.94255 -0.345,-1.28754 -1.2876,-0.34499 -0.9425,0.94255 0.345,1.28754 -1.2876,-0.34499 -0.9425,0.94254 -0.345,-1.28753 -1.2876,-0.34501 0.9426,-0.94255 -0.345,-1.28755 -1.2876,-0.34501 -0.9425,0.94257 -0.345,-1.28754 -1.2875,-0.34501 0.9425,-0.94255 -0.345,-1.28754 1.2875,0.345 0.9426,-0.94256 -0.345,-1.28754 -1.2876,-0.34502 0.9426,-0.94255 -0.345,-1.28754 1.2875,0.345 0.9426,-0.94256 0.345,1.28756 1.2876,0.345 0.9425,-0.94255 -0.345,-1.28754 1.2876,0.345 0.9425,-0.94256 -0.345,-1.28754 -1.2876,-0.34502 0.9426,-0.94255 -0.345,-1.28754 -1.2875,-0.345 -0.9426,0.94256 -0.345,-1.28754 -1.2875,-0.345 0.9425,-0.94256 -0.345,-1.28755 1.2876,0.34502 0.9425,-0.94256 -0.345,-1.28756 -1.2875,-0.345 0.9425,-0.94256 -0.345,-1.28753 1.2876,0.345 0.9425,-0.94256 0.345,1.28754 1.2876,0.34501 0.9425,-0.94255 -0.345,-1.28756 1.2876,0.34502 0.9425,-0.94256 0.345,1.28755 1.2876,0.345 -0.9426,0.94255 0.345,1.28754 1.2875,0.345 0.9426,-0.94256 0.345,1.28756 1.2876,0.345 0.9425,-0.94255 -0.345,-1.28755 1.2876,0.34501 0.9425,-0.94256 -0.345,-1.28755 -1.2876,-0.34501 0.9426,-0.94255 -0.345,-1.28754 1.2875,0.345 0.9426,-0.94256 0.345,1.28756 1.2876,0.345 0.9425,-0.94255 -0.345,-1.28755 1.2876,0.345 0.9425,-0.94255 0.345,1.28754 1.2875,0.345 -0.9425,0.94255 0.345,1.28754 1.2875,0.345 0.9426,-0.94256 0.345,1.28756 1.2875,0.345 -0.9425,0.94256 0.345,1.28754 -1.2876,-0.34501 -0.9425,0.94256 0.345,1.28754 1.2875,0.345 -0.9425,0.94256 0.345,1.28753 1.2875,0.34502 0.9426,-0.94256 0.345,1.28755 1.2875,0.34499 0.9426,-0.94255 -0.345,-1.28754 1.2875,0.345 0.9426,-0.94256 0.345,1.28755 1.2875,0.345 -0.9425,0.94255 0.345,1.28754 1.2875,0.34501 0.9426,-0.94255 0.345,1.28754 1.2875,0.345 0.9426,-0.94255 -0.345,-1.28754 1.2875,0.345 0.9426,-0.94256 -0.345,-1.28754 -1.2876,-0.345 0.9426,-0.94256 -0.345,-1.28755 1.2875,0.34502 0.9426,-0.94256 0.345,1.28754 1.2875,0.345 0.9426,-0.94256 -0.3451,-1.28753 1.2876,0.34499 0.9426,-0.94255 -0.3451,-1.28754 -1.2875,-0.34501 0.9426,-0.94255 -0.3451,-1.28756 -1.2875,-0.345 -0.9425,0.94256 -0.345,-1.28754 -1.2876,-0.345 0.9425,-0.94255 -0.3449,-1.28754 1.2875,0.345 0.9426,-0.94256 -0.345,-1.28753 -1.2876,-0.34501 0.9425,-0.94255 -0.3449,-1.28756 1.2875,0.34502 0.9426,-0.94256 0.345,1.28755 1.2875,0.34499 0.9426,-0.94255 -0.345,-1.28754 1.2875,0.345 0.9426,-0.94256 0.345,1.28754 1.2875,0.34499 -0.9426,0.94256 0.345,1.28755 1.2876,0.34502 0.9426,-0.94257 0.345,1.28754 1.2876,0.34501 0.9425,-0.94256 -0.345,-1.28755 1.2875,0.34502 0.9425,-0.94256 -0.3449,-1.28754 -1.2876,-0.345 0.9426,-0.94256 -0.345,-1.28756 1.2876,0.34502 0.9425,-0.94256 0.345,1.28754 1.2875,0.345 0.9425,-0.94256 -0.3449,-1.28753 1.2875,0.34501 0.9425,-0.94257"
       inkscape:connector-curvature="0" />
    <path
       inkscape:connector-curvature="0"
       d="m 1216.0101,791.95087 -0.9425,-0.94257 -1.2875,0.345 0.3449,-1.28755 -0.9425,-0.94256 -1.2875,0.34499 -0.3451,1.28755 -0.9424,-0.94252 -1.2876,0.34501 0.345,-1.28757 -0.9426,-0.94256 1.2876,-0.34499 0.3449,-1.28755 -0.9425,-0.94255 -1.2875,0.34498 0.3449,-1.28755 -0.9425,-0.94252 -1.2876,0.34499 -0.3449,1.28756 -0.9426,-0.94257 -1.2876,0.34501 -0.3449,1.28755 0.9425,0.94256 -1.2876,0.34499 -0.3449,1.28755 -0.9426,-0.94256 -1.2875,0.34499 0.345,-1.28755 -0.9426,-0.94256 -1.2876,0.34499 -0.345,1.28756 -0.9425,-0.94253 -1.2875,0.34501 0.3449,-1.28756 -0.9425,-0.94256 1.2876,-0.345 0.3449,-1.28755 -0.9425,-0.94255 -1.2875,0.34498 0.3449,-1.28754 -0.9425,-0.94253 1.2876,-0.34498 0.3449,-1.28755 0.9426,0.94252 1.2875,-0.34499 0.3451,-1.28757 -0.9426,-0.94252 1.2876,-0.34499 0.345,-1.28755 -0.9426,-0.94256 -1.2876,0.34499 0.3451,-1.28755 -0.9426,-0.94255 -1.2876,0.34498 -0.345,1.28756 -0.9425,-0.94252 -1.2875,0.345 0.345,-1.28756 -0.9426,-0.94256 1.2876,-0.345 0.3449,-1.28754 -0.9425,-0.94256 -1.2876,0.34499 0.345,-1.28755 -0.9425,-0.94252 -1.2875,0.34499 -0.345,1.28755 -0.9426,-0.94256 -1.2876,0.345 -0.3449,1.28756 0.9425,0.94256 -1.2875,0.34498 -0.345,1.28756 -0.9426,-0.94256 -1.2875,0.34498 0.345,-1.28755 -0.9426,-0.94255 -1.2876,0.34499 -0.3449,1.28755 -0.9426,-0.94252 -1.2875,0.34501 -0.345,1.28754 0.9425,0.94253 -1.2875,0.34498 -0.345,1.28755 0.9425,0.94256 1.2876,-0.34499 -0.345,1.28755 0.9425,0.94256 -1.2875,0.34499 -0.345,1.28756 -0.9426,-0.94256 -1.2875,0.345 -0.345,1.28754 0.9425,0.94257 -1.2875,0.34498 -0.345,1.28755 -0.9426,-0.94256 -1.2875,0.34499 0.345,-1.28755 -0.9426,-0.94255 -1.2875,0.34499 -0.345,1.28757 -0.9426,-0.94253 -1.2875,0.345 0.345,-1.28756 -0.9426,-0.94255 1.2876,-0.34501 0.345,-1.28755 -0.9426,-0.94256 -1.2875,0.34499 0.345,-1.28755 -0.9426,-0.94252 -1.2875,0.34499 -0.345,1.28757 -0.9426,-0.94256 -1.2875,0.34499 -0.345,1.28755 0.9426,0.94256 -1.2876,0.34498 -0.345,1.28755 -0.9425,-0.94255 -1.2876,0.345 0.345,-1.28757 -0.9426,-0.94255 -1.2875,0.34501 -0.345,1.28754 -0.9426,-0.94256 -1.2875,0.34503 0.345,-1.28754 -0.9426,-0.94256 1.2876,-0.345 0.345,-1.28756 -0.9426,-0.94256 -1.2875,0.34501 0.345,-1.28757 -0.9425,-0.94252 1.2875,-0.34503 0.345,-1.28751 0.9425,0.94252 1.2876,-0.34499 0.345,-1.28754 -0.9426,-0.94252 1.2876,-0.34505 0.345,-1.28751 -0.9426,-0.94257 -1.2875,0.345 0.345,-1.28754 -0.9426,-0.94258 -1.2875,0.345 -0.345,1.28756 -0.9426,-0.94255 -1.2875,0.34502 0.345,-1.28754 -0.9425,-0.94253 1.2875,-0.34504 0.345,-1.28752 -0.9425,-0.94255 -1.2876,0.34499 0.345,-1.28755 -0.9426,-0.94256 1.2876,-0.34499 0.345,-1.28755 0.9425,0.94256 1.2876,-0.34499 0.345,-1.28755 -0.9426,-0.94256 1.2876,-0.345 0.345,-1.28755 0.9425,0.94256 1.2876,-0.345 -0.345,1.28756 0.9425,0.94255 1.2876,-0.34502 0.345,-1.28752 0.9425,0.94253 1.2876,-0.345 0.345,-1.28756 -0.9426,-0.94252 1.2876,-0.34503 0.345,-1.28751 -0.9426,-0.94256 -1.2875,0.34499 0.345,-1.28755 -0.9426,-0.94256 1.2876,-0.34499 0.345,-1.28754 0.9425,0.94255 1.2876,-0.34499 0.345,-1.28756 -0.9426,-0.94256 1.2876,-0.345 0.3449,-1.28754 -0.9425,-0.94256 -1.2875,0.34501 0.3449,-1.28756 -0.9425,-0.94254 -1.2876,0.34498 -0.3449,1.28756 -0.9426,-0.94255 -1.2875,0.34501 0.3449,-1.28757 -0.9425,-0.94254 1.2875,-0.345 0.345,-1.28754 -0.9425,-0.94255 -1.2875,0.34499 0.3449,-1.28755 -0.9425,-0.94254 -1.2876,0.34498 -0.3449,1.28756 -0.9426,-0.94256 -1.2876,0.34502 -0.345,1.28754 0.9426,0.94256 -1.2875,0.34498 -0.345,1.28756 -0.9426,-0.94256 -1.2875,0.345 0.345,-1.28756 -0.9426,-0.94254 -1.2875,0.34498 -0.345,1.28757 -0.9426,-0.94256 -1.2875,0.34502 0.345,-1.28757 -0.9426,-0.94255 1.2876,-0.345 0.345,-1.28754 -0.9426,-0.94255 -1.2875,0.345 0.3449,-1.28756 -0.9425,-0.94254 1.2876,-0.345 0.3449,-1.28753 0.9426,0.94253 1.2875,-0.34498 0.345,-1.28757 -0.9425,-0.94254 1.2875,-0.345 0.3451,-1.28754 -0.9426,-0.94256 -1.2876,0.345 0.345,-1.28755 -0.9425,-0.94254 -1.2876,0.34498 -0.345,1.28756 -0.9425,-0.94256 -1.2876,0.34501 0.345,-1.28757 -0.9425,-0.94253 1.2875,-0.34501 0.345,-1.28753 -0.9425,-0.94256 -1.2876,0.345 0.345,-1.28756 -0.9425,-0.94254 -1.2876,0.34498 -0.3449,1.28756 -0.9426,-0.94255 -1.2876,0.34501 -0.345,1.28755 0.9426,0.94255 -1.2876,0.34498 -0.3449,1.28756 -0.9426,-0.94256 -1.2875,0.345 0.3449,-1.28755 -0.9425,-0.94254 -1.2875,0.34498 -0.345,1.28756 -0.9426,-0.94255 -1.2876,0.34501 -0.3449,1.28754 0.9425,0.94256 -1.2875,0.34498 -0.345,1.28755 0.9425,0.94254 1.2876,-0.34498 -0.345,1.28754 0.9425,0.94255 -1.2875,0.34499 -0.345,1.28757 -0.9426,-0.94256 -1.2875,0.34501 -0.345,1.28753 0.9425,0.94256 -1.2875,0.34498 -0.345,1.28755 -0.9426,-0.94255 -1.2875,0.34501 0.345,-1.28757 -0.9426,-0.94253 -1.2875,0.34498 -0.345,1.28757 -0.9426,-0.94255 -1.2875,0.345 0.345,-1.28756 -0.9426,-0.94253 1.2876,-0.34502 0.345,-1.28754 -0.9426,-0.94256 -1.2875,0.345 0.345,-1.28756 -0.9426,-0.94253 -1.2875,0.34498 -0.345,1.28758 -0.9426,-0.94256 -1.2875,0.345 -0.345,1.28754 0.9425,0.94255 -1.2875,0.34498 -0.345,1.28756 -0.9426,-0.94256 -1.2875,0.34502 0.345,-1.28757 -0.9425,-0.94254 -1.2876,0.345 -0.345,1.28756 -0.9426,-0.94256 -1.2875,0.345 -0.345,1.28754 0.9426,0.94255 -1.2876,0.34498 -0.345,1.28756 0.9426,0.94254 1.2875,-0.34498 -0.345,1.28754 0.9426,0.94256 -1.2876,0.34499 -0.345,1.28756 -0.9425,-0.94255 -1.2876,0.34499 -0.345,1.28754 0.9426,0.94256 -1.2876,0.34498 -0.345,1.28756 0.9426,0.94254 1.2875,-0.34499 -0.345,1.28754 0.9426,0.94256 1.2875,-0.345 0.345,-1.28754 0.9426,0.94254 1.2875,-0.34499 -0.345,1.28755 0.9426,0.94255 -1.2876,0.34498 -0.345,1.28756 0.9426,0.94254 1.2875,-0.34499 -0.345,1.28755 0.9426,0.94255 -1.2876,0.345 -0.345,1.28755 -0.9425,-0.94255 -1.2876,0.345 -0.345,1.28754 0.9426,0.94255 -1.2876,0.34499 -0.3449,1.28755 -0.9426,-0.94255 -1.2876,0.34502 0.345,-1.28758 -0.9425,-0.94254 -1.2876,0.345 -0.345,1.28756 -0.9425,-0.94255 -1.2876,0.34499 -0.3449,1.28754 0.9425,0.94255 -1.2875,0.34499 -0.3451,1.28758 0.9426,0.94254 1.2876,-0.345 -0.3451,1.28755 0.9426,0.94256 -1.2876,0.34497 -0.3449,1.28756 -0.9426,-0.94255 -1.2875,0.345 -0.345,1.28753 0.9425,0.94256 -1.2875,0.34498 -0.345,1.28757 -0.9426,-0.94255 -1.2875,0.345 0.345,-1.28756 -0.9426,-0.94254 -1.2875,0.34499 -0.345,1.28755 -0.9426,-0.94255 -1.2875,0.345 0.345,-1.28756 -0.9426,-0.94254 1.2876,-0.345 0.345,-1.28754 -0.9426,-0.94255 -1.2875,0.345 0.345,-1.28756 -0.9426,-0.94253 -1.2875,0.34498 -0.345,1.28755 -0.9426,-0.94256 -1.2875,0.34501 -0.345,1.28754 0.9425,0.94256 -1.2875,0.345 -0.345,1.28755 -0.9426,-0.94256 -1.2875,0.345 0.345,-1.28755 -0.9426,-0.94254 -1.2875,0.34498 -0.345,1.28756 -0.9426,-0.94256 -1.2875,0.345 0.345,-1.28756 -0.9426,-0.94253 1.2876,-0.34501 0.345,-1.28753 -0.9426,-0.94256 -1.2875,0.345 0.345,-1.28755 -0.9426,-0.94254 1.2876,-0.345 0.345,-1.28756 0.9425,0.94254 1.2876,-0.34499 0.345,-1.28755 -0.9426,-0.94254 1.2876,-0.345 0.345,-1.28754 -0.9426,-0.94255 -1.2875,0.345 0.345,-1.28756 -0.9426,-0.94254 -1.2875,0.34498 -0.345,1.28756 -0.9426,-0.94255 -1.2875,0.34499 0.345,-1.28756 -0.9426,-0.94253 1.2876,-0.345 0.345,-1.28754 -0.9426,-0.94255 -1.2875,0.34499 0.3449,-1.28755 -0.9425,-0.94254 -1.2875,0.34498 -0.345,1.28756 -0.9426,-0.94256 -1.2875,0.345 -0.345,1.28754 0.9425,0.94256 -1.2875,0.345 -0.345,1.28755 -0.9426,-0.94255 -1.2875,0.345 0.345,-1.28756 -0.9426,-0.94254 -1.2875,0.34499 -0.345,1.28755 -0.9426,-0.94256 -1.2875,0.34501 -0.345,1.28753 0.9426,0.94256 -1.2876,0.345 -0.345,1.28756 0.9425,0.94253 1.2876,-0.34498 -0.345,1.28754 0.9426,0.94256 -1.2876,0.34498 -0.345,1.28755 -0.9425,-0.94255 -1.2876,0.345 -0.345,1.28754 0.9426,0.94256 -1.2876,0.34499 -0.345,1.28756 -0.9425,-0.94255 -1.2876,0.34499 0.345,-1.28755 -0.9425,-0.94254 -1.2876,0.34498 -0.345,1.28755 -0.9425,-0.94255 -1.2876,0.345 0.345,-1.28756 -0.9425,-0.94253 1.2875,-0.345 0.345,-1.28754 -0.9425,-0.94256 -1.2876,0.34501 0.345,-1.28756 -0.9425,-0.94254 -1.2876,0.34498 -0.345,1.28756 -0.9425,-0.94256 -1.2876,0.345 -0.345,1.28755 0.9426,0.94256 -1.2876,0.34498 -0.345,1.28756 -0.9425,-0.94256 -1.2876,0.34501 0.345,-1.28757 -0.9425,-0.94253 -1.2876,0.34498 -0.345,1.28756 -0.9425,-0.94256 -1.2876,0.34501 0.345,-1.28756 -0.9425,-0.94254 1.2875,-0.345 0.345,-1.28754 -0.9425,-0.94256 -1.2876,0.345 0.345,-1.28756 -0.9425,-0.94253 1.2875,-0.34501 0.345,-1.28753 0.9426,0.94254 1.2875,-0.345 0.345,-1.28756 -0.9425,-0.94254 1.2875,-0.345 0.345,-1.28754 -0.9426,-0.94255 -1.2875,0.345 0.345,-1.28756 -0.9425,-0.94253 -1.2876,0.34498 -0.345,1.28755 -0.9425,-0.94256 -1.2876,0.34501 0.345,-1.28754 -0.9425,-0.94256 1.2875,-0.345 0.345,-1.28753 -0.9426,-0.94256 -1.2875,0.345 0.345,-1.28754 -0.9426,-0.94256 1.2876,-0.345 0.345,-1.28755 0.9426,0.94255 1.2875,-0.345 0.345,-1.28754 -0.9426,-0.94256 1.2876,-0.345 0.345,-1.28753 0.9425,0.94256 1.2876,-0.345 -0.345,1.28753 0.9425,0.94256 1.2876,-0.345 0.345,-1.28756 0.9426,0.94256 1.2875,-0.345 0.345,-1.28754 -0.9426,-0.94255 1.2876,-0.345 0.345,-1.28754 -0.9426,-0.94256 -1.2875,0.345 0.345,-1.28754 -0.9426,-0.94255 1.2876,-0.345 0.345,-1.28756 0.9425,0.94256 1.2876,-0.34501 0.345,-1.28753 -0.9426,-0.94256 1.2875,-0.345 0.345,-1.28754 -0.9425,-0.94256 -1.2875,0.34501 0.345,-1.28754 -0.9426,-0.94256 -1.2875,0.345 -0.345,1.28754 -0.9426,-0.94256 -1.2875,0.345 0.345,-1.28754 -0.9426,-0.94255 1.2876,-0.345 0.345,-1.28754 -0.9426,-0.94255 -1.2875,0.34499 0.345,-1.28753 -0.9426,-0.94256 -1.2875,0.345 -0.345,1.28753 -0.9426,-0.94255 -1.2875,0.345 -0.345,1.28754 0.9425,0.94256 -1.2875,0.34502 -0.345,1.28753 -0.9426,-0.94255 -1.2875,0.345 0.345,-1.28754 -0.9426,-0.94256 -1.2875,0.345 -0.345,1.28754 -0.9426,-0.94255 -1.2875,0.34499 0.345,-1.28753 -0.9426,-0.94256 1.2876,-0.345 0.345,-1.28754 -0.9426,-0.94256 -1.2875,0.34501 0.345,-1.28754 -0.9426,-0.94256 1.2876,-0.345 0.345,-1.28756 0.9425,0.94256 1.2876,-0.345 0.345,-1.28754 -0.9426,-0.94256 1.2876,-0.34499 0.3449,-1.28755 -0.9425,-0.94255 -1.2875,0.345 0.3449,-1.28754 -0.9425,-0.94255 -1.2875,0.34499 -0.345,1.28754 -0.9426,-0.94255 -1.2875,0.345 0.345,-1.28754 -0.9426,-0.94256 1.2876,-0.345 0.3449,-1.28753 -0.9425,-0.94256 -1.2875,0.345 0.3449,-1.28754 -0.9425,-0.94256 1.2876,-0.34501 0.345,-1.28754 0.9425,0.94255 1.2875,-0.345 0.345,-1.28754 -0.9425,-0.94255 1.2875,-0.345 0.345,-1.28754 0.9426,0.94256 1.2875,-0.34502 -0.345,1.28756 0.9426,0.94256 1.2875,-0.34502 0.345,-1.28754 0.9426,0.94255 1.2875,-0.345 0.345,-1.28754 -0.9425,-0.94255 1.2875,-0.345 0.345,-1.28756 -0.9425,-0.94256 -1.2876,0.34502 0.345,-1.28756 -0.9425,-0.94255 1.2875,-0.345 0.345,-1.28754 0.9426,0.94255 1.2875,-0.34499 0.345,-1.28754 -0.9425,-0.94256 1.2875,-0.34499 0.345,-1.28756 0.9426,0.94255 1.2875,-0.345 -0.345,1.28754 0.9426,0.94256 1.2875,-0.345 0.345,-1.28754 0.9426,0.94255 1.2875,-0.34499 -0.345,1.28754 0.9426,0.94255 -1.2876,0.345 -0.345,1.28754 0.9426,0.94256 1.2875,-0.34501 -0.345,1.28754 0.9426,0.94256 1.2875,-0.345 0.345,-1.28754 0.9426,0.94255 1.2875,-0.34499 0.345,-1.28754 -0.9426,-0.94256 1.2876,-0.345 0.345,-1.28755 0.9426,0.94255 1.2875,-0.345 -0.345,1.28754 0.9426,0.94256 1.2875,-0.34501 0.345,-1.28753 0.9425,0.94255 1.2876,-0.345 0.345,-1.28754 -0.9426,-0.94255 1.2876,-0.345 0.345,-1.28756 -0.9426,-0.94255 -1.2875,0.34501 0.345,-1.28756 -0.9426,-0.94255 1.2876,-0.345 0.345,-1.28753 0.9425,0.94255 1.2876,-0.345 0.345,-1.28754 -0.9426,-0.94256 1.2876,-0.34501 0.345,-1.28755 -0.9426,-0.94255 -1.2875,0.345 0.345,-1.28754 -0.9426,-0.94256 -1.2875,0.34501 -0.345,1.28755 -0.9426,-0.94255 -1.2875,0.34499 0.345,-1.28753 -0.9426,-0.94256 1.2876,-0.34501 0.345,-1.28755 -0.9426,-0.94255 -1.2875,0.345 0.345,-1.28755 -0.9426,-0.94255 1.2876,-0.34499 0.345,-1.28754 0.9425,0.94255 1.2875,-0.34499 0.3451,-1.28755 -0.9426,-0.94255 1.2875,-0.34502 0.345,-1.28754 0.9426,0.94256 1.2875,-0.345 -0.345,1.28753 0.9426,0.94256 1.2875,-0.345 0.345,-1.28753 0.9426,0.94255 1.2875,-0.345 0.345,-1.28756 -0.9425,-0.94255 1.2875,-0.345 0.345,-1.28754 -0.9425,-0.94256 -1.2876,0.345 0.345,-1.28754 -0.9425,-0.94255 1.2875,-0.345 0.345,-1.28755 0.9426,0.94257 1.2875,-0.34501 0.345,-1.28755 -0.9425,-0.94256 1.2875,-0.345 0.345,-1.28754 -0.9425,-0.94255 -1.2876,0.34499 0.345,-1.28754 -0.9425,-0.94255 -1.2876,0.34499 -0.345,1.28755 -0.9425,-0.94255 -1.2876,0.34501 0.345,-1.28755 -0.9425,-0.94256 1.2875,-0.345 0.345,-1.28754 -0.9425,-0.94255 -1.2876,0.34499 0.345,-1.28754 -0.9425,-0.94255 -1.2876,0.34499 -0.345,1.28755 -0.9425,-0.94256 -1.2876,0.34502 -0.345,1.28754 0.9426,0.94255 -1.2876,0.34501 -0.345,1.28754 -0.9425,-0.94257 -1.2876,0.34501 0.345,-1.28754 -0.9425,-0.94256 -1.2876,0.345 -0.345,1.28755 -0.9425,-0.94256 -1.2876,0.34502 0.345,-1.28756 -0.9425,-0.94255 1.2875,-0.34501 0.345,-1.28754 -0.9425,-0.94256 -1.2876,0.34501 0.345,-1.28754 -0.9425,-0.94256 1.2875,-0.345 0.345,-1.28754 0.9426,0.94255 1.2875,-0.345 0.345,-1.28755 -0.9425,-0.94255 1.2875,-0.345 0.345,-1.28754 -0.9425,-0.94257 -1.2876,0.34501 0.345,-1.28754 -0.9425,-0.94255 -1.2876,0.34499 -0.345,1.28755 -0.9425,-0.94255 -1.2876,0.34501 0.345,-1.28756 -0.9425,-0.94255 1.2875,-0.34501 0.345,-1.28753 -0.9425,-0.94256 -1.2876,0.345 0.345,-1.28754 -0.9425,-0.94255 -1.2876,0.34499 -0.345,1.28754 -0.9425,-0.94255 -1.2876,0.34502 -0.345,1.28754 0.9426,0.94255 -1.2876,0.345 -0.345,1.28753 -0.9425,-0.94255 -1.2876,0.345 0.345,-1.28754 -0.9425,-0.94256 -1.2876,0.34501 -0.345,1.28754 -0.9425,-0.94256 -1.2876,0.34502 -0.345,1.28754 0.9426,0.94256 -1.2876,0.34499 -0.345,1.28754 0.9426,0.94256 1.2875,-0.345 -0.345,1.28754 0.9426,0.94255 -1.2875,0.345 -0.3451,1.28756 -0.9425,-0.94256 -1.2876,0.345 -0.345,1.28754 0.9426,0.94255 -1.2875,0.34501 -0.345,1.28754 -0.9426,-0.94257 -1.2875,0.34502 0.345,-1.28755 -0.9426,-0.94255 -1.2875,0.345 -0.3451,1.28756 -0.9425,-0.94257 -1.2875,0.34501 0.345,-1.28754 -0.9426,-0.94255 1.2876,-0.34503 0.345,-1.28754 -0.9426,-0.94255 -1.2875,0.34501 0.345,-1.28755 -0.9426,-0.94256 -1.2875,0.34501 -0.3451,1.28755 -0.9425,-0.94255 -1.2876,0.345 -0.3449,1.28753 0.9425,0.94256 -1.2875,0.345 -0.345,1.28753 -0.9426,-0.94255 -1.2875,0.34502 0.345,-1.28756 -0.9426,-0.94255 -1.2875,0.34501 -0.345,1.28754 -0.9426,-0.94255 -1.2875,0.34499 0.345,-1.28753 -0.9426,-0.94256 1.2875,-0.34499 0.3451,-1.28757 -0.9426,-0.94255 -1.2875,0.34502 0.345,-1.28757 -0.9426,-0.94255 1.2876,-0.34499 0.345,-1.28754 0.9425,0.94255 1.2876,-0.345 0.3449,-1.28753 -0.9425,-0.94256 1.2876,-0.34502 0.345,-1.28754 -0.9426,-0.94255 -1.2875,0.34499 0.345,-1.28754 -0.9426,-0.94255 -1.2875,0.345 -0.3451,1.28756 -0.9425,-0.94255 -1.28756,0.34499 0.345,-1.28753 -0.94256,-0.94257 1.28762,-0.34501 0.345,-1.28755 -0.9426,-0.94255 -1.28755,0.345 0.345,-1.28754 -0.94255,-0.94255 1.28754,-0.345 0.34499,-1.28754 0.94257,0.94255 1.2875,-0.34499 0.345,-1.28755 -0.9425,-0.94255 1.2875,-0.34501 0.345,-1.28755 0.9426,0.94256 1.2875,-0.345 -0.345,1.28754 0.9426,0.94255 1.2875,-0.34499 0.345,-1.28754 0.9426,0.94255 1.2875,-0.34499 0.345,-1.28757 -0.9425,-0.94255 1.2875,-0.345 0.345,-1.28754 -0.9425,-0.94256 -1.2876,0.34501 0.345,-1.28755 -0.9425,-0.94255 1.2875,-0.345 0.345,-1.28754 0.9426,0.94256 1.2875,-0.34501 0.345,-1.28754 -0.9425,-0.94257 1.2875,-0.34499 0.345,-1.28755 -0.9426,-0.94255 -1.2875,0.34499 0.345,-1.28753 -0.9425,-0.94256 -1.2876,0.345 -0.345,1.28755 -0.9425,-0.94256 -1.2876,0.34501 0.345,-1.28755 -0.9425,-0.94256 1.2875,-0.345 0.345,-1.28754 -0.9426,-0.94255 -1.2875,0.345 0.345,-1.28755 -0.9426,-0.94255 -1.2875,0.345 -0.345,1.28754 -0.9425,-0.94255 -1.2876,0.34501 -0.34501,1.28754 0.94261,0.94256 -1.28759,0.345 -0.345,1.28754 -0.94255,-0.94256 -1.28754,0.345 0.34499,-1.28753 -0.94255,-0.94256 -1.28753,0.345 -0.34501,1.28754 -0.94256,-0.94256 -1.28755,0.34502 0.34501,-1.28755 -0.94255,-0.94256 1.28754,-0.34501 0.345,-1.28754 -0.94255,-0.94256 -1.28754,0.34501 0.345,-1.28753 -0.94256,-0.94257 1.28754,-0.34499 0.34499,-1.28755 0.94256,0.94256 1.28754,-0.345 0.34503,-1.28755 -0.94257,-0.94256 1.28754,-0.345 0.34501,-1.28754 -0.94256,-0.94256 -1.28755,0.345 0.34501,-1.28753 -0.94256,-0.94255 -1.28753,0.34499 -0.34501,1.28754 -0.94256,-0.94256 -1.28755,0.34502 0.34501,-1.28756 -0.94256,-0.94255 1.28755,-0.34501 0.345,-1.28753 -0.94256,-0.94256 -1.28753,0.34501 0.345,-1.28755 -0.94256,-0.94255"
       style="fill:none;fill-opacity:1;stroke:#c80000;stroke-width:5;stroke-linecap:butt;stroke-linejoin:miter;stroke-miterlimit:4;stroke-dasharray:none;stroke-opacity:1"
       id="path4654" />
    <path
       id="path4667"
       style="fill:none;fill-opacity:1;stroke:#c80000;stroke-width:5;stroke-linecap:butt;stroke-linejoin:miter;stroke-miterlimit:4;stroke-dasharray:none;stroke-opacity:1"
       d="m 1444.5781,562.91091 -0.9426,0.94253 0.345,1.28755 -1.2875,-0.34501 -0.9426,0.9426 0.345,1.28755 1.2876,0.34495 -0.9426,0.94254 0.3451,1.28754 -1.2876,-0.34495 -0.9426,0.94253 -0.345,-1.28754 -1.2875,-0.34501 -0.9426,0.94254 0.345,1.2876 -1.2875,-0.345 -0.9425,0.94253 0.3449,1.28755 1.2876,0.34496 -0.9426,0.94259 0.3451,1.28754 1.2875,0.34501 0.9425,-0.94259 0.345,1.28755 1.2876,0.345 -0.9426,0.94254 0.345,1.28755 -1.2876,-0.34496 -0.9425,0.94255 0.345,1.28754 1.2876,0.34501 -0.9426,0.94254 0.345,1.28754 -1.2875,-0.345 -0.9427,0.94253 -0.3449,-1.28754 -1.2875,-0.34501 -0.9426,0.94259 0.345,1.28755 -1.2875,-0.345 -0.9426,0.94253 -0.345,-1.28755 -1.2875,-0.345 0.9425,-0.94249 -0.345,-1.2876 -1.2876,-0.34501 -0.9424,0.94254 -0.3451,-1.28754 -1.2875,-0.34501 -0.9426,0.9426 0.345,1.28754 -1.2876,-0.34501 -0.9425,0.94254 0.345,1.2876 1.2875,0.34496 -0.9424,0.94253 0.3449,1.28755 -1.2876,-0.345 -0.9425,0.94259 -0.345,-1.28755 -1.2875,-0.34501 -0.9426,0.94254 0.345,1.28755 -1.2875,-0.34496 -0.9426,0.94249 0.3451,1.28755 1.2875,0.345 -0.9427,0.94254 0.3451,1.28761 1.2875,0.34495 0.9427,-0.94254 0.3449,1.28754 1.2875,0.34501 -0.9425,0.94254 0.345,1.28755 -1.2875,-0.34501 -0.9426,0.94259 0.345,1.28755 1.2875,0.345 -0.9425,0.94249 0.345,1.2876 1.2875,0.34495 0.9426,-0.94248 0.3449,1.28755 1.2876,0.34495 0.9426,-0.94253 -0.3451,-1.28755 1.2876,0.345 0.9426,-0.94259 0.3451,1.28755 1.2875,0.345 -0.9427,0.9426 0.3451,1.28754 1.2875,0.34496 0.9426,-0.94254 0.345,1.28754 1.2875,0.34502 -0.9426,0.94253 0.3451,1.28755 -1.2876,-0.34501 -0.9426,0.94259 0.3451,1.28755 1.2875,0.34501 -0.9425,0.94254 0.345,1.28755 -1.2876,-0.34502 -0.9426,0.94255 -0.3449,-1.28755 -1.2875,-0.34501 -0.9427,0.94254 0.3451,1.2876 -1.2876,-0.34501 -0.9426,0.94255 0.3451,1.28754 1.2876,0.34501 -0.9427,0.94253 0.3451,1.28755 1.2875,0.34501 0.9425,-0.9426 0.3451,1.28755 1.2875,0.34502 -0.9426,0.94253 0.3451,1.2876 -1.2876,-0.34501 -0.9426,0.94254 0.3451,1.28755 1.2875,0.34501 -0.9426,0.94254 0.3451,1.28755 -1.2876,-0.34501 -0.9426,0.94258 -0.3449,-1.28759 -1.2876,-0.34501 -0.9426,0.9426 0.3451,1.28754 -1.2876,-0.34501 -0.9426,0.94254 -0.3449,-1.28749 -1.2876,-0.34506 0.9425,-0.94248 -0.3449,-1.28755 -1.2876,-0.34502 -0.9425,0.94255 -0.3451,-1.28755 -1.2875,-0.34506 -0.9425,0.94259 0.3449,1.28755 -1.2875,-0.34501 -0.9425,0.9426 0.3449,1.28754 1.2875,0.34501 -0.9424,0.94253 0.3449,1.2875 -1.2875,-0.34495 -0.9425,0.94248 -0.3451,-1.2875 -1.2874,-0.34505 -0.9426,0.94259 0.345,1.28754 -1.2876,-0.345 -0.9426,0.94253 -0.3449,-1.28754 -1.2875,-0.34495 0.9424,-0.94259 -0.3449,-1.28755 -1.2875,-0.34496 -0.9426,0.94255 -0.345,-1.28755 -1.2875,-0.34501 0.9425,-0.94254 -0.3449,-1.28755 1.2875,0.34496 0.9425,-0.94254 -0.345,-1.2875 -1.2875,-0.34506 0.9425,-0.94254 -0.3449,-1.28755 -1.2877,-0.345 -0.9424,0.94253 -0.3452,-1.28748 -1.2874,-0.34507 -0.9426,0.9426 0.345,1.28754 -1.2876,-0.345 -0.9425,0.94253 -0.345,-1.28754 -1.2875,-0.34496 0.9425,-0.94259 -0.345,-1.28754 -1.2876,-0.34502 -0.9425,0.9426 -0.345,-1.28755 -1.2875,-0.34501 -0.9426,0.94255 0.345,1.28754 -1.2875,-0.34501 -0.9426,0.9426 0.345,1.28755 1.2875,0.34495 -0.9425,0.94259 0.345,1.28754 -1.2875,-0.345 -0.9426,0.94254 -0.345,-1.28755 -1.2875,-0.34501 -0.9426,0.94254 0.3451,1.28755 -1.2876,-0.34495 -0.9426,0.94253 0.345,1.28755 1.2876,0.34496 -0.9426,0.94259 0.3451,1.28755 1.2875,0.345 0.9425,-0.94253 0.345,1.28754 1.2876,0.34495 -0.9426,0.9426 0.345,1.28749 -1.2876,-0.34495 -0.9425,0.94254 0.345,1.28754 1.2875,0.34501 -0.9425,0.94254 0.345,1.28754 -1.2876,-0.345 -0.9426,0.94254 -0.3449,-1.28755 -1.2875,-0.34501 -0.9426,0.94259 0.345,1.28755 -1.2875,-0.345 -0.9426,0.94253 -0.345,-1.28754 -1.2876,-0.34501 0.9426,-0.94254 -0.345,-1.28755 -1.2876,-0.345 -0.9425,0.94253 -0.3451,-1.28754 -1.2874,-0.34496 -0.9426,0.94255 0.345,1.28754 -1.2876,-0.34501 -0.9424,0.94254 0.3449,1.28755 1.2875,0.34501 -0.9425,0.94253 0.345,1.28755 -1.2876,-0.34495 -0.9425,0.94254 -0.345,-1.28755 -1.2876,-0.345 -0.9425,0.94253 0.345,1.28755 -1.2875,-0.34496 -0.9426,0.94254 0.345,1.28755 1.2875,0.34495 -0.9425,0.9426 0.345,1.28755 1.2875,0.345 0.9426,-0.94259 0.345,1.28754 1.2875,0.34501 -0.9425,0.94254 0.345,1.28755 -1.2876,-0.34495 -0.9425,0.94253 0.345,1.28755 1.2875,0.34496 -0.9425,0.94259 0.345,1.28755 1.2875,0.345 0.9426,-0.94259 0.3449,1.2876 1.2877,0.34495 0.9425,-0.94253 -0.345,-1.28755 1.2875,0.345 0.9426,-0.94253 0.345,1.28755 1.2876,0.34494 -0.9427,0.9426 0.3451,1.28754 1.2875,0.34502 0.9425,-0.94259 0.3451,1.28753 1.2875,0.34502 -0.9426,0.94253 0.3451,1.28755 -1.2876,-0.34495 -0.9426,0.94254 0.3451,1.28754 1.2875,0.34501 -0.9426,0.94254 0.3451,1.28755 -1.2876,-0.34501 -0.9426,0.94254 -0.3449,-1.28755 -1.2876,-0.34501 -0.9426,0.94254 0.3451,1.28755 -1.2876,-0.34496 -0.9426,0.94255 0.3451,1.28755 1.2875,0.345 -0.9426,0.94253 0.3451,1.28755 1.2875,0.34502 0.9425,-0.94255 0.345,1.28755 1.2876,0.34496 -0.9425,0.94259 0.345,1.28754 -1.2876,-0.34501 -0.9426,0.94255 0.3451,1.28754 1.2875,0.34501 -0.9425,0.94254 0.345,1.28754 1.2874,0.34501 0.9427,-0.94254 0.3449,1.28755 1.2875,0.34495 0.9426,-0.94254 -0.345,-1.28754 1.2875,0.34501 0.9426,-0.94254 0.345,1.28754 1.2876,0.34501 -0.9426,0.94254 0.3451,1.28755 1.2875,0.345 0.9425,-0.94259 0.345,1.2876 1.2876,0.34496 0.9425,-0.94254 -0.345,-1.28755 1.2876,0.34501 0.9425,-0.94254 -0.345,-1.28755 -1.2875,-0.345 0.9425,-0.94254 -0.3449,-1.28755 1.2875,0.34495 0.9425,-0.94253 0.345,1.28754 1.2876,0.34501 0.9426,-0.94254 -0.3451,-1.28754 1.2875,0.345 0.9426,-0.94259 0.345,1.2876 1.2875,0.34495 -0.9425,0.94259 0.345,1.2875 1.2875,0.345 0.9426,-0.94254 0.345,1.28755 1.2875,0.34501 -0.9425,0.94254 0.345,1.28755 -1.2876,-0.34501 -0.9425,0.94254 0.345,1.2876 1.2875,0.34495 -0.9425,0.94259 0.345,1.28755 1.2876,0.34496 0.9425,-0.94254 0.345,1.28754 1.2876,0.34501 0.9425,-0.94254 -0.345,-1.28754 1.2875,0.345 0.9426,-0.94254 0.345,1.28755 1.2875,0.34495 -0.9426,0.9426 0.3451,1.28749 1.2875,0.34501 0.9426,-0.94254 0.345,1.28755 1.2875,0.345 -0.9425,0.94254 0.345,1.28755 -1.2876,-0.34495 -0.9425,0.94253 0.3449,1.28755 1.2876,0.34496 -0.9425,0.94259 0.345,1.28749 -1.2876,-0.34495 -0.9425,0.94254 -0.345,-1.28755 -1.2876,-0.34501 -0.9425,0.94259 0.345,1.2875 -1.2876,-0.34496 -0.9426,0.94254 0.3451,1.28755 1.2875,0.34495 -0.9426,0.9426 0.345,1.28754 1.2876,0.34501 0.9426,-0.94259 0.345,1.2876 1.2875,0.34495 -0.9425,0.94259 0.3449,1.2875 -1.2875,-0.34496 -0.9425,0.94254 0.345,1.28755 1.2875,0.34501 -0.9426,0.94254 0.345,1.28754 -1.2875,-0.345 -0.9425,0.94253 -0.3451,-1.28754 -1.2875,-0.34496 -0.9425,0.94254 0.345,1.28755 -1.2876,-0.34501 -0.9426,0.94254 -0.3449,-1.28755 -1.2876,-0.345 0.9425,-0.94254 -0.3449,-1.28755 -1.2876,-0.34501 -0.9426,0.94254 -0.3449,-1.28749 -1.2875,-0.34501 -0.9426,0.94254 0.345,1.28755 -1.2876,-0.34501 -0.9425,0.94254 0.345,1.28755 1.2875,0.345 -0.9426,0.94254 0.3451,1.28755 -1.2876,-0.34495 -0.9425,0.94253 -0.3451,-1.28754 -1.2875,-0.34501 -0.9425,0.94254 0.345,1.28755 -1.2876,-0.34496 -0.9425,0.94254 0.3449,1.28755 1.2876,0.34495 -0.9425,0.94259 0.3449,1.2875 1.2876,0.345 0.9426,-0.94253 0.345,1.2876 1.2876,0.34495 -0.9426,0.94254 0.345,1.28755 -1.2876,-0.34496 -0.9426,0.94254 0.3451,1.28755 1.2875,0.34495 -0.9426,0.94259 0.3451,1.28755 1.2875,0.34495 0.9425,-0.94253 0.3451,1.2876 1.2875,0.34495 0.9425,-0.94254 -0.3449,-1.28755 1.2875,0.34501 0.9425,-0.94259 0.345,1.2876 1.2876,0.34495 -0.9425,0.94254 0.3449,1.28755 1.2875,0.34501 0.9427,-0.94254 0.3449,1.28755 1.2876,0.345 -0.9425,0.94254 0.3449,1.28755 -1.2876,-0.34496 -0.9425,0.94254 0.345,1.28755 1.2875,0.34495 -0.9425,0.9426 0.3449,1.28754 -1.2875,-0.345 -0.9425,0.94254 -0.345,-1.28755 -1.2875,-0.34501 -0.9426,0.94259 0.345,1.2875 -1.2875,-0.34496 -0.9425,0.94254 0.3449,1.28755 1.2876,0.34501 -0.9426,0.94254 0.345,1.28753 1.2875,0.34501 0.9427,-0.94255 0.3449,1.28756 1.2875,0.34498 -0.9425,0.94255 0.345,1.28754 -1.2876,-0.34498 -0.9425,0.94254 0.3449,1.28755 1.2876,0.34499 -0.9425,0.94256 0.3449,1.28753 -1.2875,-0.34498 -0.9425,0.94254 -0.345,-1.28754 -1.2876,-0.345 -0.9425,0.94256 0.345,1.28753 -1.2876,-0.34498 -0.9425,0.94254 -0.345,-1.28754 -1.2875,-0.345 0.9425,-0.94254 -0.345,-1.28757 -1.2875,-0.34498 -0.9426,0.94254 -0.345,-1.28754 -1.2875,-0.345 -0.9426,0.94255 0.3451,1.28754 -1.2876,-0.34498 -0.9426,0.94254 0.345,1.28756 1.2876,0.34498 -0.9426,0.94255 0.345,1.28754 -1.2875,-0.345 -0.9426,0.94256 -0.3449,-1.28754 -1.2876,-0.345 -0.9426,0.94256 0.345,1.28753 -1.2875,-0.345 -0.9426,0.94256 -0.345,-1.28754 -1.2876,-0.34502 0.9426,-0.94255 -0.345,-1.28754 -1.2875,-0.34501 -0.9426,0.94257 -0.345,-1.28754 -1.2875,-0.345 0.9426,-0.94256 -0.3451,-1.28754 1.2876,0.345 0.9426,-0.94256 -0.3451,-1.28753 -1.2875,-0.34502 0.9426,-0.94256 -0.3451,-1.28753 -1.2875,-0.34501 -0.9426,0.94256 -0.3449,-1.28754 -1.2876,-0.345 -0.9426,0.94256 0.345,1.28754 -1.2874,-0.345 -0.9427,0.94256 -0.3449,-1.28754 -1.2876,-0.34502 0.9426,-0.94256 -0.345,-1.28754 -1.2876,-0.34498 -0.9426,0.94254 -0.345,-1.28755 -1.2875,-0.34501 -0.9425,0.94258 0.3449,1.28753 -1.2875,-0.345 -0.9425,0.94256 0.3449,1.28754 1.2876,0.345 -0.9425,0.94255 0.3449,1.28754 -1.2875,-0.345 -0.9425,0.94256 -0.3451,-1.28754 -1.2875,-0.345 -0.9425,0.94255 0.3449,1.28755 -1.2875,-0.34501 -0.9426,0.94256 0.3451,1.28754 1.2875,0.345 -0.9425,0.94256 0.3449,1.28753 1.2876,0.34501 0.9425,-0.94256 0.3451,1.28756 1.2874,0.345 -0.9424,0.94255 0.3449,1.28754 -1.2875,-0.345 -0.9425,0.94256 0.3449,1.28754 1.2875,0.34499 -0.9425,0.94256 0.345,1.28754 -1.2875,-0.345 -0.9425,0.94255 -0.3451,-1.28753 -1.2875,-0.345 -0.9425,0.94255 0.3449,1.28754 -1.2875,-0.345 -0.9425,0.94256 -0.345,-1.28754 -1.2876,-0.34502 0.9425,-0.94255 -0.3449,-1.28755 -1.2876,-0.345 -0.9426,0.94256 -0.3449,-1.28754 -1.2876,-0.34499 -0.9425,0.94255 0.345,1.28754 -1.2875,-0.345 -0.9427,0.94256 0.3451,1.28753 1.2875,0.345 -0.9426,0.94255 0.3451,1.28755 -1.2875,-0.34501 -0.9427,0.94256 -0.3449,-1.28754 -1.2876,-0.34499 -0.9426,0.94255 0.345,1.28754 -1.2876,-0.345 -0.9424,0.94256 -0.3451,-1.28756 -1.2875,-0.345 0.9426,-0.94255 -0.345,-1.28755 -1.2876,-0.34499 -0.9425,0.94255 -0.345,-1.28754 -1.2876,-0.34499 0.9426,-0.94255 -0.345,-1.28757 1.2875,0.34502 0.9426,-0.94255 -0.3451,-1.28756 -1.2875,-0.345 0.9426,-0.94256 -0.345,-1.28754 -1.2875,-0.345 -0.9426,0.94256 -0.345,-1.28754 -1.2875,-0.34502 -0.9427,0.94256 0.3451,1.28756 -1.2876,-0.34502 -0.9425,0.94255 -0.345,-1.28754 -1.2876,-0.345 0.9426,-0.94255 -0.345,-1.28754 -1.2876,-0.345 -0.9425,0.94256 -0.345,-1.28755 -1.2876,-0.34501 0.9426,-0.94255 -0.345,-1.28755 1.2875,0.34501 0.9426,-0.94256 -0.3451,-1.28754 -1.2875,-0.345 0.9426,-0.94256 -0.345,-1.28753 1.2875,0.34499 0.9426,-0.94255 0.345,1.28754 1.2875,0.345 0.9426,-0.94256 -0.345,-1.28754 1.2876,0.345 0.9425,-0.94255 -0.345,-1.28754 -1.2876,-0.34498 0.9426,-0.9426 -0.345,-1.28754 -1.2876,-0.34496 -0.9425,0.94254 -0.345,-1.28755 -1.2876,-0.345 0.9426,-0.94254 -0.345,-1.28755 1.2875,0.34501 0.9427,-0.94259 -0.3451,-1.28755 -1.2875,-0.34501 0.9425,-0.94254 -0.345,-1.28754 -1.2875,-0.34501 -0.9425,0.94259 -0.3451,-1.28754 -1.2875,-0.34501 -0.9426,0.94254 0.345,1.28754 -1.2875,-0.345 -0.9426,0.94253 -0.3449,-1.28749 -1.2876,-0.34501 0.9425,-0.94259 -0.3449,-1.28749 -1.2876,-0.34501 -0.9426,0.94254 -0.3449,-1.28755 -1.2876,-0.34501 -0.9425,0.94254 0.3449,1.28755 -1.2875,-0.34501 -0.9426,0.9426 0.345,1.28754 1.2876,0.34501 -0.9426,0.94254 0.345,1.28755 -1.2875,-0.34501 -0.9425,0.94254 -0.3451,-1.28755 -1.2875,-0.34501 -0.9426,0.9426 0.345,1.28749 -1.2875,-0.34496 -0.9425,0.94254 -0.3451,-1.28754 -1.2875,-0.34501 0.9426,-0.94254 -0.345,-1.28755 -1.2876,-0.345 -0.9426,0.94253 -0.3449,-1.28754 -1.2876,-0.34501 0.9425,-0.94254 -0.3449,-1.28755 1.2875,0.34501 0.9425,-0.94254 -0.345,-1.28754 -1.2874,-0.34501 0.9425,-0.94254 -0.345,-1.28755 -1.2875,-0.345 -0.9426,0.94254 -0.345,-1.28755 -1.2876,-0.34501 -0.9426,0.94259 0.3451,1.2875 -1.2876,-0.34496 -0.9425,0.94254 -0.3451,-1.28755 -1.2875,-0.345 0.9427,-0.94254 -0.3451,-1.28755 -1.2875,-0.34501 -0.9426,0.94254 -0.345,-1.28754 -1.2875,-0.34501 -0.9426,0.94259 0.345,1.28755 -1.2875,-0.34501 -0.9426,0.94254 0.345,1.28755 1.2876,0.345 -0.9426,0.94254 0.3451,1.28755 -1.2876,-0.34501 -0.9426,0.94254 -0.345,-1.28749 -1.2875,-0.34501 -0.9426,0.94254 0.3451,1.28755 -1.2876,-0.34501 -0.9426,0.94254 0.3451,1.28754 1.2875,0.34501 -0.9426,0.94254 0.345,1.28755 1.2876,0.345 0.9425,-0.94253 0.345,1.28754 1.2875,0.34501 -0.9425,0.94254 0.345,1.28755 -1.2875,-0.34501 -0.9426,0.94254 0.345,1.28754 1.2875,0.34501 -0.9425,0.94254 0.345,1.28759 -1.2875,-0.34502 -0.9426,0.94255 -0.345,-1.28753 -1.2875,-0.34501 -0.9426,0.94256 0.3451,1.28753 -1.2876,-0.34499 -0.9426,0.94255 -0.3449,-1.28753 -1.2875,-0.345 0.9425,-0.94254 -0.345,-1.28755 -1.2876,-0.34501 -0.9425,0.94254 -0.3451,-1.28755 -1.2875,-0.345 -0.9425,0.94259 0.345,1.28749 -1.2876,-0.34495 -0.9425,0.94253 0.345,1.28754 1.2875,0.345 -0.9425,0.94255 0.345,1.28756 -1.2876,-0.34502 -0.9425,0.94256 -0.3451,-1.28754 -1.2875,-0.345 -0.9425,0.94256 0.345,1.28753 -1.2876,-0.34499 -0.9425,0.94255 0.3449,1.28754 1.2876,0.345 -0.9425,0.94256 0.3449,1.28755 1.2876,0.345 0.9426,-0.94255 0.3449,1.28753 1.2876,0.34501 -0.9425,0.94255 0.3449,1.28754 -1.2875,-0.345 -0.9426,0.94256 0.345,1.28754 1.2875,0.345 -0.9425,0.94255 0.345,1.28756 1.2876,0.345 0.9425,-0.94256 0.3451,1.28755 1.2875,0.34499 0.9426,-0.94255 -0.345,-1.28754 1.2875,0.345 0.9425,-0.94256 0.3451,1.28754 1.2875,0.34502 -0.9426,0.94255 0.3451,1.28754 1.2875,0.345 0.9425,-0.94255 0.3451,1.28753 1.2874,0.345 -0.9425,0.94256 0.345,1.28754 -1.2875,-0.345 -0.9426,0.94255 0.3451,1.28755 1.2875,0.34501 -0.9425,0.94256 0.3449,1.28754 -1.2875,-0.345 -0.9426,0.94256 -0.345,-1.28756 -1.2875,-0.345 -0.9426,0.94255 0.3451,1.28754 -1.2876,-0.345 -0.9426,0.94256 0.3451,1.28754 1.2875,0.34502 -0.9426,0.94255 0.345,1.28754 1.2876,0.345 0.9425,-0.94255 0.345,1.28753 1.2876,0.345 -0.9425,0.94256 0.3449,1.28756 -1.2875,-0.34502 -0.9426,0.94255 0.3451,1.28756 1.2875,0.345 -0.9426,0.94255 0.345,1.28754 -1.2875,-0.345 -0.9425,0.94256 -0.3451,-1.28754 -1.2876,-0.34502 -0.9426,0.94256 0.3451,1.28756 -1.2875,-0.34502 -0.9426,0.94255 -0.345,-1.28753 -1.2875,-0.345 0.9425,-0.94256 -0.3449,-1.28754 -1.2876,-0.34499 -0.9426,0.94255 -0.345,-1.28756 -1.2876,-0.345 -0.9425,0.94256 0.345,1.28754 -1.2876,-0.34501 -0.9425,0.94256 0.3449,1.28754 1.2877,0.34502 -0.9426,0.94256 0.345,1.28754 -1.2876,-0.34501 -0.9425,0.94256 -0.345,-1.28756 -1.2876,-0.345 -0.9425,0.94255 0.345,1.28755 -1.2875,-0.345 -0.9426,0.94255 -0.345,-1.28754 -1.2875,-0.34499 0.9426,-0.94256 -0.3451,-1.28754 -1.2875,-0.345 -0.9426,0.94255 -0.345,-1.28755 -1.2875,-0.345 0.9425,-0.94256 -0.345,-1.28753 1.2876,0.34499 0.9425,-0.94255 -0.3449,-1.28754 -1.2876,-0.34499 0.9425,-0.94256 -0.345,-1.28754 -1.2875,-0.34502 -0.9426,0.94256 -0.3449,-1.28754 -1.2876,-0.34501 -0.9426,0.94256 0.3451,1.28754 -1.2876,-0.345 -0.9426,0.94256 -0.345,-1.28754 -1.2875,-0.345 0.9426,-0.94256 -0.3451,-1.28754 -1.2875,-0.34502 -0.9425,0.94256 -0.3451,-1.28754 -1.2875,-0.345 -0.9425,0.94256 0.3449,1.28754 -1.2875,-0.345 -0.9426,0.94255 0.345,1.28754 1.2876,0.345 -0.9425,0.94255 0.3449,1.28756 -1.2875,-0.34502 -0.9426,0.94256 -0.3449,-1.28754 -1.2876,-0.345 -0.9426,0.94255 0.345,1.28755 -1.2875,-0.345 -0.9426,0.94255 0.3451,1.28754 1.2875,0.345 -0.9426,0.94256 0.3451,1.28756 1.2875,0.34499 0.9425,-0.94255 0.3451,1.28754 1.2875,0.345 -0.9426,0.94255 0.345,1.28754 -1.2875,-0.345 -0.9426,0.94255 0.345,1.28754 1.2876,0.34501 -0.9426,0.94255 0.345,1.28756 -1.2875,-0.34502 -0.9426,0.94256 -0.345,-1.28754 -1.2875,-0.345 -0.9426,0.94255 0.345,1.28754 -1.2875,-0.345 -0.9426,0.94256 -0.3449,-1.28754 -1.2876,-0.345 0.9425,-0.94255 -0.3449,-1.28755 -1.2876,-0.34501 -0.9426,0.94256 -0.345,-1.28755 -1.2876,-0.345 -0.9424,0.94256 0.3449,1.28754 -1.2875,-0.345 -0.9425,0.94255 0.3449,1.28754 1.2875,0.34501 -0.9425,0.94256 0.345,1.28755 -1.2875,-0.34502 -0.9425,0.94256 -0.3451,-1.28755 -1.2875,-0.34499 -0.9426,0.94255 0.345,1.28754 -1.2875,-0.345 -0.9426,0.94256"
       inkscape:connector-curvature="0" />
    <path
       inkscape:connector-curvature="0"
       d="m 1120.433,563.00984 1.333,-4e-5 0.6664,1.1544 0.6665,-1.1544 h 1.3331 l 0.6664,1.1544 -0.6665,1.15435 1.3329,3e-5 0.6665,1.1544 0.6665,-1.1544 h 1.333 l -0.6665,-1.15438 0.6665,-1.1544 h 1.3329 l 0.6666,1.1544 0.6665,-1.1544 1.3329,4e-5 0.6665,1.15436 -0.6665,1.15435 1.333,3e-5 0.6665,1.1544 -0.6665,1.15439 -1.333,-4e-5 0.6665,1.15439 -0.6665,1.15438 h 1.3329 l 0.6666,1.15436 0.6665,-1.15436 h 1.3329 l 0.6665,1.1544 -0.6665,1.15439 h 1.333 l 0.6664,1.15439 0.6665,-1.15439 1.333,-3e-5 -0.6665,-1.15436 0.6665,-1.1544 h 1.333 l 0.6665,1.1544 0.6665,-1.1544 h 1.3329 l -0.6665,-1.15434 0.6665,-1.15439 h -1.3329 l -0.6666,-1.15439 0.6666,-1.15443 1.3329,3e-5 -0.6665,-1.15438 0.6665,-1.1544 h 1.333 l 0.6665,1.1544 0.6664,-1.1544 h 1.333 l 0.6665,1.1544 -0.6665,1.15435 1.3329,3e-5 0.6665,1.1544 0.6665,-1.15443 1.333,3e-5 -0.6664,-1.15438 0.6664,-1.1544 h 1.333 l 0.6665,1.1544 0.6665,-1.15436 1.3329,-4e-5 0.6665,1.1544 -0.6665,1.15438 1.333,-3e-5 0.6665,1.15443 -0.6665,1.15435 -1.333,4e-5 0.6665,1.15435 -0.6665,1.15438 h 1.333 l 0.6664,1.1544 0.6665,-1.1544 h 1.3331 l 0.6664,1.1544 -0.6664,1.15439 1.3329,-3e-5 0.6665,1.15442 -0.6665,1.15435 -1.3329,4e-5 0.6664,1.15439 -0.6665,1.15435 h -1.3329 l -0.6665,-1.15439 -0.6665,1.15443 -1.333,-4e-5 0.6665,1.1544 -0.6665,1.15438 h 1.333 l 0.6665,1.1544 -0.6665,1.15434 -1.333,4e-5 0.6665,1.15436 -0.6665,1.15438 h 1.333 l 0.6664,1.1544 0.6665,-1.1544 h 1.3331 l 0.6664,1.1544 -0.6664,1.15438 1.3329,4e-5 0.6665,1.15436 0.6665,-1.1544 h 1.3329 l -0.6665,-1.15438 0.6665,-1.1544 1.333,-3e-5 0.6665,1.15443 0.6665,-1.1544 h 1.3329 l 0.6665,1.1544 -0.6665,1.15442 1.333,-4e-5 0.6665,1.1544 -0.6665,1.15439 -1.333,-4e-5 0.6665,1.15439 -0.6665,1.15439 h 1.333 l 0.6665,1.15442 0.6665,-1.15442 h 1.3329 l 0.6665,1.15439 -0.6665,1.15439 1.333,-4e-5 0.6665,1.15444 0.6664,-1.1544 h 1.3331 l -0.6666,-1.15439 0.6665,-1.15443 1.333,4e-5 0.6665,1.15439 0.6665,-1.15439 h 1.3329 l -0.6664,-1.15436 0.6664,-1.15442 -1.3329,4e-5 -0.6665,-1.15439 0.6665,-1.1544 1.3329,4e-5 -0.6664,-1.15442 0.6664,-1.1544 h 1.333 l 0.6665,1.1544 0.6665,-1.1544 h 1.333 l 0.6665,1.1544 -0.6665,1.15438 h 1.3329 l 0.6665,1.15436 0.6665,-1.15436 h 1.3329 l -0.6664,-1.15438 0.6664,-1.1544 h 1.333 l 0.6665,1.1544 0.6664,-1.1544 h 1.333 l -0.6665,-1.15438 0.6665,-1.15436 -1.333,-4e-5 -0.6665,-1.15434 0.6665,-1.15436 1.333,-4e-5 -0.6664,-1.15438 0.6664,-1.1544 -1.333,4e-5 -0.6664,-1.15439 -0.6665,1.15435 h -1.333 l -0.6664,-1.15435 0.6664,-1.15439 -1.3329,-4e-5 -0.6666,-1.15435 0.6666,-1.15442 1.3329,3e-5 -0.6664,-1.15439 0.6664,-1.1544 h 1.333 l 0.6665,1.1544 0.6664,-1.1544 h 1.333 l -0.6665,-1.15438 0.6665,-1.15435 -1.333,-4e-5 -0.6665,-1.15435 0.6665,-1.15443 1.333,3e-5 -0.6664,-1.15438 0.6664,-1.1544 h 1.333 l 0.6664,1.1544 0.6665,-1.1544 1.333,4e-5 0.6665,1.15436 -0.6665,1.15435 1.333,3e-5 0.6665,1.1544 0.6664,-1.1544 h 1.333 l -0.6665,-1.15438 0.6665,-1.1544 h 1.3329 l 0.6665,1.1544 0.6666,-1.1544 h 1.3329 l 0.6665,1.1544 -0.6665,1.15435 1.333,3e-5 0.6665,1.1544 -0.6665,1.15439 h -1.333 l 0.6665,1.15439 -0.6665,1.15434 1.333,4e-5 0.6665,1.15432 0.6665,-1.15436 h 1.3329 l 0.6665,1.1544 -0.6665,1.15439 h 1.333 l 0.6665,1.15439 0.6665,-1.15442 h 1.3329 l -0.6664,-1.1544 0.6664,-1.15436 h 1.3331 l 0.6664,1.1544 0.6665,-1.1544 h 1.3329 l -0.6664,-1.15438 0.6664,-1.15439 h -1.3329 l -0.6665,-1.15435 0.6665,-1.15443 h 1.3329 l -0.6664,-1.1544 0.6664,-1.15431 1.333,-4e-5 0.6664,1.1544 0.6665,-1.1544 h 1.333 l 0.6665,1.15435 -0.6665,1.15443 1.333,-3e-5 0.6665,1.15439 0.6665,-1.15436 h 1.333 l -0.6665,-1.15438 0.6665,-1.1544 h 1.3329 l 0.6665,1.1544 0.6665,-1.15436 h 1.333 l 0.6665,1.15436 -0.6665,1.15435 1.3329,3e-5 0.6665,1.1544 -0.6665,1.15439 -1.3329,-4e-5 0.6664,1.15439 -0.6664,1.15438 h 1.3329 l 0.6665,1.1544 0.6665,-1.15436 1.333,-4e-5 0.6665,1.1544 -0.6665,1.15436 1.3329,3e-5 0.6665,1.15439 -0.6665,1.15439 -1.3329,-4e-5 0.6665,1.15443 -0.6665,1.15435 h -1.333 l -0.6665,-1.15439 -0.6665,1.15439 -1.3329,4e-5 0.6665,1.15436 -0.6666,1.15438 h 1.333 l 0.6665,1.1544 -0.6665,1.15438 -1.3329,-4e-5 0.6664,1.1544 -0.6664,1.15438 h 1.3329 l 0.6665,1.1544 0.6665,-1.1544 h 1.333 l 0.6665,1.1544 -0.6665,1.15438 h 1.3329 l 0.6665,1.1544 0.6665,-1.1544 h 1.333 l -0.6665,-1.15438 0.6665,-1.1544 1.3328,-3e-5 0.6665,1.15439 0.6666,-1.15436 h 1.333 l 0.6665,1.1544 -0.6665,1.15438 h 1.3329 l 0.6665,1.1544 -0.6665,1.15439 h -1.3329 l 0.6665,1.15435 -0.6665,1.15439 h 1.333 l 0.6664,1.15442 0.6665,-1.15442 h 1.3329 l 0.6665,1.15439 -0.6665,1.15439 h 1.3329 l 0.6665,1.1544 -0.6664,1.15434 -1.333,4e-5 0.6665,1.15435 -0.6665,1.15436 h -1.3329 l -0.6665,-1.15436 -0.6665,1.15439 h -1.3329 l 0.6665,1.1544 -0.6665,1.15438 h 1.3329 l 0.6665,1.1544 -0.6664,1.15434 h -1.333 l 0.6665,1.1544 -0.6665,1.15439 h -1.333 l -0.6666,-1.15439 -0.6665,1.15439 h -1.3328 l -0.6665,-1.15439 0.6665,-1.15436 -1.333,-4e-5 -0.6665,-1.15434 -0.6665,1.15434 h -1.3329 l 0.6665,1.1544 -0.6665,1.15439 h -1.333 l -0.6665,-1.15439 -0.6665,1.15439 -1.3329,-4e-5 0.6665,1.15443 -0.6665,1.15435 1.3329,4e-5 0.6665,1.15435 -0.6665,1.15439 h -1.3329 l 0.6664,1.15439 -0.6664,1.15439 h 1.3329 l 0.6665,1.15439 0.6665,-1.15442 h 1.333 l 0.6665,1.15442 -0.6665,1.15435 1.3329,4e-5 0.6665,1.15439 -0.6665,1.15435 h -1.3329 l 0.6665,1.1544 -0.6665,1.15438 h -1.333 l -0.6665,-1.15438 -0.6665,1.15438 -1.3329,4e-5 0.6665,1.15435 -0.6665,1.15435 1.3329,5e-5 0.6665,1.15435 -0.6665,1.15438 h -1.3329 l 0.6664,1.1544 -0.6664,1.15438 h 1.3329 l 0.6665,1.1544 0.6665,-1.1544 h 1.333 l 0.6665,1.1544 -0.6665,1.15435 1.3329,4e-5 0.6665,1.15435 0.6665,-1.15435 h 1.333 l -0.6665,-1.15439 0.6665,-1.1544 1.3328,4e-5 0.6665,1.15432 0.6666,-1.15436 h 1.333 l 0.6665,1.1544 -0.6665,1.15435 1.3329,4e-5 0.6665,1.15435 -0.6664,1.15438 h -1.333 l 0.6665,1.15444 -0.6665,1.15435 h 1.333 l 0.6664,1.15435 0.6665,-1.15435 h 1.3329 l 0.6665,1.15439 -0.6665,1.15439 1.333,-4e-5 0.6665,1.15439 0.6665,-1.15439 h 1.3329 l -0.6665,-1.15439 0.6666,-1.15435 h 1.3329 l 0.6665,1.15439 0.6665,-1.15439 h 1.3329 l -0.6664,-1.15439 0.6664,-1.1544 h -1.3329 l -0.6665,-1.15438 0.6665,-1.15439 h 1.3329 l -0.6664,-1.15435 0.6665,-1.1544 h 1.333 l 0.6664,1.1544 0.6665,-1.1544 h 1.333 l 0.6665,1.15436 -0.6665,1.15439 h 1.333 l 0.6665,1.15439 0.6665,-1.15435 h 1.3329 l -0.6665,-1.15439 0.6665,-1.1544 h 1.333 l 0.6665,1.1544 0.6665,-1.1544 h 1.3329 l 0.6665,1.1544 -0.6665,1.15435 1.3329,4e-5 0.6665,1.15435 -0.6665,1.15438 h -1.3329 l 0.6665,1.15444 -0.6665,1.15435 h 1.3329 l 0.6665,1.15439 0.6665,-1.15439 h 1.3329 l 0.6665,1.15439 -0.6665,1.15435 1.333,4e-5 0.6665,1.15438 -0.6665,1.15432 -1.333,4e-5 0.6665,1.15443 -0.6665,1.15435 h -1.3329 l -0.6665,-1.15438 -0.6665,1.15438 -1.3329,-4e-5 0.6665,1.15444 -0.6665,1.15434 h 1.3329 l 0.6665,1.1544 -0.6665,1.15435 -1.3329,3e-5 0.6665,1.1544 -0.6665,1.15438 h 1.3329 l 0.6665,1.15436 0.6665,-1.15436 h 1.3329 l 0.6665,1.1544 -0.6665,1.15435 1.333,4e-5 0.6665,1.15435 0.6665,-1.15439 h 1.333 l -0.6665,-1.15439 0.6664,-1.15436 h 1.3331 l 0.6664,1.15436 0.6665,-1.15436 h 1.333 l 0.6665,1.15436 -0.6665,1.15443 1.333,-4e-5 0.6665,1.15438 -0.6665,1.15439 -1.333,3e-5 0.6665,1.15437 -0.6665,1.15436 1.333,10e-6 0.6664,1.15439 0.6665,-1.15437 h 1.333 l 0.6665,1.15435 -0.6665,1.15438 1.333,10e-6 0.6665,1.15439 0.6665,-1.15438 h 1.3329 l -0.6664,-1.15438 0.6664,-1.15439 1.333,2e-5 0.6665,1.15438 0.6664,-1.15441 h 1.333 l -0.6665,-1.15435 0.6665,-1.15438 h -1.333 l -0.6664,-1.15441 0.6664,-1.15438 h 1.333 l -0.6665,-1.15437 0.6665,-1.15439 1.3329,10e-6 0.6665,1.15439 0.6665,-1.15442 h 1.333 l 0.6665,1.15441 -0.6665,1.15436 1.3329,1e-5 0.6665,1.15439 0.6665,-1.15439 1.333,-3e-5 -0.6665,-1.15433 0.6665,-1.1544 1.333,-2e-5 0.6664,1.15439 0.6665,-1.15435 1.333,-3e-5 -0.6665,-1.15438 0.6665,-1.1544 -1.333,-10e-6 -0.6665,-1.15435 0.6665,-1.15439 1.333,-2e-5 -0.6665,-1.15438 0.6665,-1.15435 -1.333,-10e-6 -0.6665,-1.15438 -0.6665,1.15438 -1.3329,-2e-5 -0.6665,-1.15438 0.6665,-1.1544 -1.333,3e-5 -0.6665,-1.15438 0.6665,-1.15439 1.333,10e-6 -0.6665,-1.15438 0.6665,-1.15439 1.3329,2e-5 0.6665,1.15434 0.6665,-1.15435 1.333,-2e-5 -0.6665,-1.15438 0.6665,-1.15441 -1.333,3e-5 -0.6665,-1.15438 0.6665,-1.15437 1.333,-4e-5 -0.6665,-1.15435 0.6665,-1.1544 1.333,-10e-6 0.6665,1.15438 0.6665,-1.15438 1.3329,10e-6 0.6665,1.15439 -0.6665,1.15438 1.333,10e-6 0.6665,1.15435 0.6664,-1.15435 1.3331,-3e-5 -0.6665,-1.15438 0.6664,-1.15434 1.333,-3e-5 0.6664,1.15439 0.6665,-1.15439 1.333,10e-6 0.6664,1.15439 -0.6664,1.15438 1.333,-3e-5 0.6665,1.15439 -0.6665,1.15438 -1.333,-1e-5 0.6664,1.15443 -0.6664,1.15436 h 1.333 l 0.6664,1.15439 0.6665,-1.15438 1.333,10e-6 0.6665,1.15439 -0.6665,1.15433 1.333,10e-6 0.6665,1.1544 0.6665,-1.1544 1.3329,2e-5 -0.6665,-1.15438 0.6665,-1.15439 1.333,2e-5 0.6665,1.15438 0.6665,-1.15438 1.3329,-3e-5 -0.6665,-1.15435 0.6665,-1.15443 -1.3329,3e-5 -0.6665,-1.15439 0.6665,-1.15439 1.3329,2e-5 -0.6665,-1.15438 0.6665,-1.15439 h 1.333 l 0.6665,1.1544 0.6665,-1.15439 1.3329,-3e-5 0.6665,1.15439 -0.6665,1.15438 1.333,10e-6 0.6665,1.15439 0.6665,-1.15439 1.3329,-3e-5 -0.6665,-1.15434 0.6665,-1.15439 1.333,-2e-5 0.6664,1.15438 0.6665,-1.15438 1.333,10e-6 -0.6665,-1.15439 0.6665,-1.15439 -1.333,-10e-6 -0.6665,-1.15434 0.6665,-1.15439 1.333,-3e-5 -0.6665,-1.15435 0.6665,-1.15438 -1.333,-10e-6 -0.6665,-1.15439 -0.6665,1.15439 -1.3329,-2e-5 -0.6665,-1.15439 0.6665,-1.15439 -1.3329,3e-5 -0.6665,-1.15438 0.6665,-1.15439 1.3329,1e-5 -0.6665,-1.15438 0.6665,-1.1544 1.333,-3e-5 0.6664,1.1544 0.6665,-1.1544 1.333,2e-5 -0.6665,-1.15439 0.6665,-1.15438 -1.333,-2e-5 -0.6665,-1.15434 0.6665,-1.15438 1.333,-3e-5 -0.6665,-1.15435 0.6664,-1.15439 -1.3329,-10e-6 -0.6665,-1.15439 -0.6665,1.15439 -1.3329,-2e-5 -0.6665,-1.15438 0.6665,-1.15439 -1.3329,2e-5 -0.6665,-1.15437 -0.6665,1.15437 -1.333,-10e-6 0.6665,1.1544 -0.6665,1.15438 -1.3329,-2e-5 -0.6665,-1.15438 -0.6665,1.15438 -1.333,-10e-6 -0.6665,-1.15434 0.6665,-1.15438 -1.3329,-4e-5 -0.6665,-1.15438 0.6665,-1.15436 h 1.3329 l -0.6665,-1.15438 0.6665,-1.1544 h -1.3329 l -0.6665,-1.15439 -0.6665,1.15439 h -1.333 l -0.6665,-1.15439 0.6665,-1.15439 h -1.333 l -0.6664,-1.15439 0.6664,-1.15439 1.333,4e-5 -0.6665,-1.15439 0.6665,-1.15439 h 1.333 l 0.6665,1.15439 0.6665,-1.15439 1.3329,-4e-5 -0.6665,-1.15432 0.6665,-1.15438 -1.3329,-4e-5 -0.6665,-1.15435 0.6665,-1.1544 h 1.3329 l -0.6665,-1.15438 0.6665,-1.1544 h 1.333 l 0.6665,1.1544 0.6665,-1.1544 h 1.333 l 0.6664,1.1544 -0.6664,1.15438 h 1.3329 l 0.6665,1.1544 0.6665,-1.1544 h 1.3329 l -0.6665,-1.15438 0.6665,-1.1544 h 1.333 l 0.6664,1.15436 0.6665,-1.15436 h 1.333 l -0.6665,-1.15438 0.6665,-1.1544 -1.333,4e-5 -0.6665,-1.15438 0.6665,-1.1544 h 1.3329 l -0.6664,-1.15438 0.6664,-1.1544 h -1.3329 l -0.6665,-1.15439 -0.6665,1.15439 h -1.3329 l -0.6665,-1.15439 0.6665,-1.15435 h -1.3329 l -0.6665,-1.15439 0.6665,-1.15439 h 1.3329 l -0.6665,-1.15439 0.6665,-1.1544 h 1.333 l 0.6664,1.15436 0.6665,-1.15436 h 1.333 l -0.6665,-1.15438 0.6664,-1.15436 -1.3329,4e-5 -0.6665,-1.15439 0.6665,-1.15439 1.3329,-4e-5 -0.6664,-1.15435 0.6664,-1.15439 h 1.3331 l 0.6664,1.15439 0.6665,-1.15439 h 1.3329 l 0.6665,1.15439 -0.6665,1.15439 h 1.333 l 0.6665,1.15439 0.6665,-1.15439 1.333,-4e-5 -0.6664,-1.15435 0.6664,-1.15439 h 1.333 l 0.6665,1.15439 0.6664,-1.15439 h 1.333 l 0.6665,1.15439 -0.6665,1.15439 1.333,-4e-5 0.6665,1.1544 -0.6665,1.15438 -1.333,4e-5 0.6665,1.15435 -0.6665,1.15439 h 1.333 l 0.6665,1.15439 0.6664,-1.15439 h 1.333 l 0.6665,1.15439 -0.6664,1.15435 h 1.3329 l 0.6665,1.15442 0.6664,-1.15439 1.333,10e-6 -0.6665,-1.15439 0.6665,-1.15439 1.333,2e-5 0.6664,1.15438 0.6665,-1.15438 1.333,-10e-6 -0.6665,-1.15435 0.6665,-1.15438 h -1.333 l -0.6665,-1.15439 0.6665,-1.15439 h 1.333 l -0.6665,-1.15439 0.6665,-1.15439 1.333,3e-5 0.6664,1.15436 0.6665,-1.15436 1.333,-2e-5 0.6665,1.15436 -0.6665,1.15439 1.333,2e-5 0.6664,1.15439 0.6665,-1.1544 h 1.333 l -0.6665,-1.15439 0.6665,-1.15437 h 1.333 l 0.6664,1.15437 0.6665,-1.15438 1.333,10e-6 0.6665,1.15437 -0.6665,1.15439 h 1.333 l 0.6664,1.1544 -0.6664,1.15438 h -1.333 l 0.6665,1.15438 -0.6665,1.15438 h 1.333 l 0.6664,1.15437 0.6665,-1.15437 h 1.333 l 0.6665,1.15437 -0.6665,1.15439 h 1.333 l 0.6664,1.15441 -0.6664,1.15438 h -1.333 l 0.6665,1.15437 -0.6665,1.15436 -1.333,3e-5 -0.6665,-1.15439 -0.6664,1.15439 -1.333,-10e-6 0.6665,1.15438 -0.6665,1.15441 h 1.333 l 0.6664,1.15439 -0.6664,1.15434 -1.333,3e-5 0.6665,1.15438 -0.6665,1.15433 1.333,10e-6 0.6665,1.15439 0.6664,-1.15437 1.333,10e-6 0.6665,1.15439 -0.6665,1.1544 1.333,10e-6 0.6664,1.15434 0.6665,-1.15434 1.333,-2e-5 -0.6665,-1.1544 0.6665,-1.15439 1.3329,10e-6 0.6665,1.15439 0.6665,-1.15439 1.333,2e-5 0.6664,1.15438 -0.6664,1.1544 1.333,-2e-5 0.6665,1.15438 -0.6665,1.15438 -1.333,-10e-6 0.6665,1.15438 -0.6665,1.15439 1.333,10e-6 0.6664,1.1544 0.6665,-1.1544 1.333,-3e-5 0.6665,1.15444 -0.6665,1.15438 1.333,-2e-5 0.6665,1.15438 0.6665,-1.15438 1.3329,10e-6 -0.6664,-1.15439 0.6664,-1.1544 h 1.333 l 0.6665,1.1544 0.6665,-1.1544 h 1.3329 l -0.6664,-1.15438 0.6664,-1.15437 h -1.3329 l -0.6665,-1.15438 0.6665,-1.15438 h 1.3329 l -0.6664,-1.15441 0.6664,-1.15438 h 1.333 l 0.6665,1.15438 0.6665,-1.15438 h 1.3329 l 0.6664,1.15438 -0.6664,1.15441 h 1.3329 l 0.6665,1.15438 0.6665,-1.15438 h 1.333 l -0.6665,-1.15441 0.6664,-1.15438 h 1.333 l 0.6665,1.15438 0.6665,-1.15438 h 1.333 l -0.6665,-1.15438 0.6665,-1.15438 h -1.333 l -0.6665,-1.15438 0.6665,-1.15438 h 1.333 l -0.6665,-1.15441 0.6665,-1.15437 h -1.333 l -0.6665,-1.15438 -0.6665,1.15438 h -1.333 l -0.6664,-1.15438 0.6665,-1.15437 h -1.333 l -0.6665,-1.15438 0.6665,-1.15441 h 1.3329 l -0.6664,-1.15438 0.6664,-1.15438 h 1.333 l 0.6665,1.15438 0.6665,-1.15438 h 1.333 l -0.6665,-1.15438 0.6665,-1.15438 h -1.333 l -0.6665,-1.15439 0.6665,-1.15439 h 1.333 l -0.6665,-1.15439 0.6665,-1.15437 h 1.333 l 0.6665,1.15437 0.6664,-1.15437 h 1.333 l 0.6665,1.15437 -0.6665,1.15439 h 1.333 l 0.6665,1.1544 0.6664,-1.1544 h 1.3331 l -0.6665,-1.15439 0.6665,-1.15438 h 1.3329 l 0.6665,1.15438 0.6665,-1.15437 h 1.333 l 0.6665,1.15437 -0.6665,1.15439 h 1.3329 l 0.6665,1.1544 -0.6665,1.15438 h -1.3329 l 0.6665,1.15438 -0.6665,1.15438 h 1.3329 l 0.6665,1.15437 0.6664,-1.15437 h 1.333 l 0.6665,1.15437 -0.6665,1.15439 h 1.333 l 0.6664,1.1544 0.6665,-1.1544 h 1.333 l -0.6665,-1.15439 0.6665,-1.15437 h 1.333 l 0.6664,1.15437 0.6665,-1.15437 h 1.333 l -0.6665,-1.15438 0.6665,-1.15438 h -1.333 l -0.6665,-1.15438 0.6665,-1.1544 h 1.333 l -0.6665,-1.15439 0.6665,-1.15437 h 1.333 l 0.6664,1.15437 0.6665,-1.15437 h 1.333 l 0.6665,1.15437 -0.6665,1.15439 h 1.333 l 0.6665,1.1544 0.6665,-1.1544 h 1.333 l -0.6665,-1.15439 0.6665,-1.15437 h 1.3329 l 0.6665,1.15437 0.6665,-1.15438 1.3329,10e-6"
       style="fill:none;fill-opacity:1;stroke:#c80000;stroke-width:5;stroke-linecap:butt;stroke-linejoin:miter;stroke-miterlimit:4;stroke-dasharray:none;stroke-opacity:1"
       id="path4669" />
    <path
       inkscape:connector-curvature="0"
       d="m 1211.5695,334.33672 0.9425,0.94255 1.2876,-0.34499 -0.345,1.28754 0.9426,0.94255 1.2875,-0.34499 0.345,-1.28756 0.9425,0.94257 1.2876,-0.34502 -0.345,1.28756 0.9425,0.94255 -1.2875,0.345 -0.3451,1.28755 0.9427,0.94255 1.2875,-0.345 -0.345,1.28754 0.9425,0.94256 1.2876,-0.345 0.345,-1.28755 0.9425,0.94255 1.2875,-0.34501 0.3451,-1.28754 -0.9426,-0.94256 1.2876,-0.34498 0.345,-1.28755 0.9425,0.94255 1.2876,-0.345 -0.345,1.28755 0.9426,0.94255 1.2875,-0.34499 0.345,-1.28755 0.9425,0.94255 1.2876,-0.34501 -0.3451,1.28756 0.9427,0.94255 -1.2876,0.34499 -0.345,1.28755 0.9426,0.94255 1.2875,-0.34499 -0.3451,1.28755 0.9426,0.94254 -1.2875,0.345 -0.345,1.28754 -0.9425,-0.94256 -1.2876,0.345 -0.345,1.28756 0.9426,0.94255 -1.2876,0.345 -0.345,1.28755 0.9425,0.94255 1.2876,-0.34499 -0.345,1.28753 0.9426,0.94256 1.2876,-0.345 0.3449,-1.28754 0.9426,0.94254 1.2875,-0.345 -0.345,1.28756 0.9426,0.94255 -1.2876,0.345 -0.345,1.28754 0.9426,0.94255 1.2875,-0.34499 -0.345,1.28755 0.9425,0.94254 1.2876,-0.345 0.345,-1.28754 0.9426,0.94255 1.2875,-0.34501 0.3451,-1.28754 -0.9426,-0.94256 1.2875,-0.345 0.345,-1.28754 0.9425,0.94256 1.2875,-0.345 -0.3449,1.28755 0.9425,0.94254 1.2876,-0.34498 0.345,-1.28755 0.9425,0.94254 1.2876,-0.34501 0.345,-1.28755 -0.9425,-0.94254 1.2875,-0.345 0.3449,-1.28754 -0.9424,-0.94255 -1.2876,0.345 0.345,-1.28756 -0.9425,-0.94254 1.2875,-0.34499 0.345,-1.28757 0.9426,0.94256 1.2875,-0.34501 0.345,-1.28753 -0.9425,-0.94255 1.2875,-0.345 0.3449,-1.28754 0.9426,0.94254 1.2875,-0.34499 -0.345,1.28755 0.9426,0.94255 1.2876,-0.345 0.345,-1.28756 0.9425,0.94255 1.2875,-0.34499 -0.3449,1.28754 0.9425,0.94255 -1.2876,0.345 -0.3449,1.28756 0.9425,0.94255 1.2876,-0.345 -0.345,1.28756 0.9425,0.94254 1.2875,-0.345 0.3451,-1.28756 0.9425,0.94255 1.2875,-0.34499 0.3451,-1.28755 -0.9426,-0.94254 1.2876,-0.345 0.345,-1.28755 0.9425,0.94256 1.2876,-0.34502 -0.3451,1.28756 0.9426,0.94255 1.2876,-0.345 0.3449,-1.28756 0.9426,0.94256 1.2875,-0.345 -0.345,1.28755 0.9426,0.94254 -1.2875,0.345 -0.3451,1.28757 0.9426,0.94255 1.2876,-0.34502 -0.3451,1.28756 0.9426,0.94256 -1.2875,0.34499 -0.3451,1.28754 -0.9424,-0.94255 -1.2876,0.34499 -0.345,1.28756 0.9426,0.94254 -1.2876,0.34502 -0.345,1.28754 0.9425,0.94255 1.2876,-0.345 -0.3451,1.28756 0.9427,0.94254 1.2875,-0.34499 0.345,-1.28757 0.9426,0.94256 1.2875,-0.34501 -0.3451,1.28756 0.9426,0.94253 -1.2875,0.34503 -0.3451,1.28754 0.9426,0.94256 1.2876,-0.34501 -0.345,1.28755 0.9425,0.94254 -1.2875,0.34501 -0.3451,1.28753 -0.9424,-0.94254 -1.2876,0.34499 -0.345,1.28756 0.9426,0.94254 -1.2876,0.34501 -0.345,1.28754 -0.9426,-0.94254 -1.2876,0.34498 0.3451,-1.28754 -0.9426,-0.94255 -1.2875,0.345 -0.345,1.28754 -0.9426,-0.94255 -1.2875,0.34499 -0.345,1.28756 0.9425,0.94255 -1.2875,0.34501 -0.345,1.28753 0.9425,0.94256 1.2876,-0.345 -0.3449,1.28755 0.9424,0.94254 -1.2875,0.345 -0.345,1.28754 -0.9425,-0.94254 -1.2876,0.34499 -0.345,1.28757 0.9426,0.94254 -1.2876,0.34501 -0.345,1.28753 0.9426,0.94256 1.2875,-0.34501 -0.345,1.28756 0.9426,0.94254 1.2875,-0.34498 0.345,-1.28756 0.9426,0.94256 1.2875,-0.34503 -0.345,1.28758 0.9425,0.94253 -1.2875,0.34502 -0.345,1.28753 0.9426,0.94256 1.2875,-0.345 -0.3449,1.28756 0.9424,0.94253 1.2876,-0.34498 0.345,-1.28756 0.9425,0.94255 1.2876,-0.34501 0.345,-1.28753 -0.9426,-0.94258 1.2876,-0.34497 0.345,-1.28756 0.9425,0.94256 1.2876,-0.345 -0.345,1.28756 0.9426,0.94254 1.2875,-0.34499 0.345,-1.28755 0.9425,0.94255 1.2876,-0.34502 -0.345,1.28757 0.9426,0.94255 -1.2876,0.345 -0.345,1.28754 0.9426,0.94255 1.2875,-0.345 -0.345,1.28757 0.9426,0.94252 -1.2875,0.34501 -0.3451,1.28753 -0.9425,-0.94253 -1.2876,0.34499 -0.345,1.28757 0.9426,0.94253 -1.2876,0.34501 -0.345,1.28754 0.9425,0.94255 1.2876,-0.34499 -0.345,1.28754 0.9426,0.94255 1.2876,-0.34499 0.3449,-1.28755 0.9426,0.94255 1.2875,-0.34501 -0.345,1.28757 0.9426,0.94253 -1.2876,0.34501 -0.345,1.28754 0.9426,0.94255 1.2876,-0.34499 -0.3451,1.28755 0.9426,0.94254 1.2875,-0.34499 0.345,-1.28755 0.9426,0.94256 1.2875,-0.34502 0.345,-1.28754 -0.9425,-0.94256 1.2875,-0.34498 0.345,-1.28756 0.9426,0.94257 1.2875,-0.34501 -0.345,1.28755 0.9425,0.94254 1.2876,-0.34498 0.345,-1.28756 0.9425,0.94255 1.2875,-0.34501 0.3451,-1.28754 -0.9426,-0.94255 1.2876,-0.34499 0.345,-1.28755 -0.9425,-0.94254 -1.2877,0.34498 0.3451,-1.28753 -0.9426,-0.94256 1.2876,-0.34498 0.345,-1.28757 0.9426,0.94255 1.2875,-0.345 0.345,-1.28754 -0.9425,-0.94255 1.2875,-0.34498 0.3449,-1.28756 0.9427,0.94255 1.2875,-0.345 -0.3451,1.28756 0.9426,0.94254 1.2876,-0.34499 0.345,-1.28757 0.9426,0.94255 1.2875,-0.34499 -0.345,1.28755 0.9425,0.94254 -1.2875,0.34502 -0.345,1.28754 0.9425,0.94255 1.2876,-0.345 -0.3449,1.28756 0.9425,0.94254 1.2875,-0.34498 0.345,-1.28758 0.9425,0.94255 1.2876,-0.34499 0.345,-1.28755 -0.9426,-0.94255 1.2876,-0.34498 0.345,-1.28756 0.9426,0.94257 1.2876,-0.34503 -0.3451,1.28758 0.9426,0.94254 1.2875,-0.34501 0.345,-1.28756 0.9426,0.94257 1.2875,-0.34501 0.345,-1.28754 -0.9426,-0.94255 1.2876,-0.34498 0.3449,-1.28756 -0.9425,-0.94254 -1.2875,0.34499 0.3449,-1.28754 -0.9424,-0.94256 1.2875,-0.34501 0.3449,-1.28755 0.9426,0.94256 1.2876,-0.345 0.345,-1.28753 -0.9426,-0.94257 1.2875,-0.34498 0.3451,-1.28756 -0.9426,-0.94254 -1.2876,0.34499 0.3451,-1.28754 -0.9426,-0.94256 -1.2875,0.345 -0.3451,1.28753 -0.9425,-0.94252 -1.2875,0.34498 0.3449,-1.28754 -0.9425,-0.94256 1.2876,-0.34497 0.345,-1.28757 -0.9426,-0.94253 -1.2875,0.34497 0.3449,-1.28754 -0.9425,-0.94255 1.2876,-0.34499 0.345,-1.28756 0.9425,0.94256 1.2875,-0.345 0.3451,-1.28754 -0.9426,-0.94256 1.2875,-0.34499 0.3451,-1.28755 0.9425,0.94255 1.2875,-0.34502 -0.345,1.28758 0.9425,0.94254 1.2876,-0.345 0.345,-1.28756 0.9426,0.94256 1.2875,-0.345 0.345,-1.28755 -0.9425,-0.94255 1.2876,-0.34498 0.3449,-1.28757 -0.9425,-0.94255 -1.2875,0.34501 0.3449,-1.28756 -0.9425,-0.94255 1.2876,-0.34498 0.3449,-1.28756 0.9426,0.94256 1.2875,-0.34501 0.345,-1.28754 -0.9425,-0.94255 1.2875,-0.34497 0.345,-1.28758 0.9426,0.94255 1.2875,-0.34501 -0.345,1.28757 0.9425,0.94254 1.2876,-0.34498 0.345,-1.28756 0.9425,0.94255 1.2875,-0.34499 -0.3449,1.28755 0.9425,0.94254 -1.2875,0.34499 -0.345,1.28754 0.9425,0.94256 1.2876,-0.345 -0.3449,1.28755 0.9425,0.94254 1.2875,-0.34497 0.345,-1.28757 0.9425,0.94257 1.2877,-0.34501 0.3449,-1.28754 -0.9425,-0.94255 1.2876,-0.34501 0.3449,-1.28755 0.9426,0.94256 1.2875,-0.34501 -0.345,1.28756 0.9426,0.94255 1.2875,-0.34499 0.3449,-1.28756 0.9427,0.94256 1.2875,-0.345 -0.345,1.28756 0.9425,0.94253 -1.2875,0.34501 -0.3451,1.28754 0.9427,0.94255 1.2875,-0.34499 -0.345,1.28754 0.9425,0.94255 -1.2875,0.34499 -0.345,1.28756 -0.9425,-0.94254 -1.2876,0.34499 -0.345,1.28756 0.9426,0.94252 -1.2876,0.34501 -0.345,1.28754 0.9426,0.94256 1.2876,-0.34501 -0.3451,1.28756 0.9426,0.94254 1.2875,-0.34498 0.345,-1.28756 0.9426,0.94256 1.2875,-0.345 -0.345,1.28756 0.9425,0.94253 -1.2875,0.34501 -0.345,1.28753 0.9426,0.94255 1.2875,-0.345 -0.345,1.28756 0.9425,0.94254 1.2876,-0.34498 0.345,-1.28756 0.9425,0.94256 1.2876,-0.345 0.345,-1.28754 -0.9426,-0.94256 1.2876,-0.34499 0.345,-1.28756 0.9425,0.94255 1.2875,-0.34499 -0.3448,1.28755 0.9424,0.94254 1.2876,-0.34499 0.345,-1.28754 0.9426,0.94255 1.2875,-0.345 0.345,-1.28754 -0.9425,-0.94256 1.2875,-0.345 0.345,-1.28756 -0.9425,-0.94253 -1.2876,0.34497 0.345,-1.28753 -0.9426,-0.94256 1.2876,-0.34498 0.3449,-1.28755 0.9426,0.94255 1.2876,-0.345 0.3449,-1.28753 -0.9425,-0.94256 1.2876,-0.34501 0.345,-1.28755 0.9425,0.94256 1.2875,-0.34501 -0.3448,1.28756 0.9424,0.94255 1.2876,-0.34499 0.345,-1.28756 0.9425,0.94257 1.2875,-0.34501 -0.3449,1.28756 0.9425,0.94253 -1.2876,0.345 -0.3449,1.28755 0.9425,0.94255 1.2875,-0.345 -0.3449,1.28756 0.9425,0.94253 1.2875,-0.34499 0.345,-1.28754 0.9426,0.94255 1.2876,-0.345 0.345,-1.28756 -0.9426,-0.94254 1.2876,-0.34501 0.3449,-1.28753 0.9426,0.94256 1.2875,-0.34503 -0.3449,1.28758 0.9425,0.94251 1.2876,-0.34498 0.3449,-1.28752 0.9426,0.94253 1.2876,-0.345 -0.345,1.28756 0.9425,0.94252 -1.2876,0.34503 -0.345,1.28751 0.9426,0.94258 1.2876,-0.34499 -0.345,1.28753 0.9425,0.94255 -1.2875,0.345 -0.3451,1.28755 -0.9425,-0.94256 -1.2875,0.345 -0.3451,1.28756 0.9426,0.94255 -1.2875,0.345 -0.345,1.28753 0.9426,0.94256 1.2875,-0.34499 -0.345,1.28756 0.9425,0.94252 1.2876,-0.34498 0.3449,-1.28757 0.9426,0.94257 1.2876,-0.34499 -0.345,1.28755 0.9425,0.94254 -1.2875,0.34499 -0.3451,1.28756 0.9426,0.94252 1.2876,-0.34499 -0.3451,1.28756 0.9426,0.94256 -1.2875,0.34501 -0.3451,1.28755 -0.9425,-0.94257 -1.2875,0.34499 -0.3451,1.28756 0.9427,0.94254 -1.2876,0.345 -0.345,1.28755 -0.9425,-0.94257 -1.2876,0.34499 0.345,-1.28751 -0.9425,-0.94258 -1.2876,0.345 -0.345,1.28756 -0.9426,-0.94254 -1.2875,0.345 -0.345,1.28751 0.9425,0.94258 -1.2875,0.34499 -0.345,1.28755 0.9425,0.94254 1.2876,-0.345 -0.345,1.28755 0.9426,0.94255 -1.2876,0.34499 -0.3449,1.28757 -0.9427,-0.94255 -1.2875,0.345 -0.345,1.28754 0.9426,0.94255 -1.2876,0.34499 -0.345,1.28755 0.9426,0.94257 1.2875,-0.34503 -0.345,1.28755 0.9426,0.94258 1.2875,-0.34503 0.345,-1.28752 0.9426,0.94253 1.2875,-0.34499 -0.3449,1.28756 0.9424,0.94256 -1.2875,0.34499 -0.345,1.28751 0.9426,0.94258 1.2875,-0.34499 -0.3449,1.28752 0.9425,0.94256 1.2875,-0.34499 0.3451,-1.28755 0.9424,0.94256 1.2876,-0.34498 0.345,-1.28756 -0.9426,-0.94254 1.2877,-0.34504 0.3449,-1.28752 0.9426,0.94255 1.2876,-0.345 -0.3451,1.28755 0.9426,0.94253 1.2875,-0.345 0.345,-1.28755 0.9426,0.94257 1.2875,-0.34499 -0.345,1.28755 0.9425,0.94253 -1.2874,0.345 -0.3451,1.28756 0.9426,0.94256 1.2875,-0.34502 -0.345,1.28754 0.9426,0.94257 -1.2876,0.34499 -0.345,1.28757 -0.9425,-0.94257 -1.2876,0.345 -0.345,1.28754 0.9426,0.94254 -1.2875,0.345 -0.3451,1.28755 0.9426,0.94258 1.2876,-0.34501 -0.3451,1.28752 0.9426,0.94256 1.2875,-0.34499 0.345,-1.28755 0.9426,0.94256 1.2875,-0.34498 -0.345,1.28751 0.9426,0.94258 -1.2875,0.34499 -0.3451,1.28755 0.9426,0.94254 1.2875,-0.34501 -0.345,1.28756 0.9426,0.94255 -1.2875,0.34499 -0.3451,1.28756 -0.9425,-0.94254 -1.2875,0.34501 -0.3451,1.28751 0.9426,0.94256 -1.2875,0.34499 -0.3451,1.28755 -0.9425,-0.94256 -1.2876,0.345 0.3451,-1.28752 -0.9426,-0.94257 -1.2876,0.34501 -0.3449,1.28755 -0.9427,-0.94258 -1.2875,0.34503 -0.3449,1.28753 0.9425,0.94257 -1.2875,0.34499 -0.345,1.28757 0.9425,0.94252 1.2875,-0.345 -0.3449,1.28755 0.9425,0.94255 -1.2875,0.34499 -0.345,1.28756 -0.9426,-0.94254 -1.2875,0.345 -0.3451,1.28752 0.9426,0.94256 -1.2875,0.345 -0.3451,1.28755 -0.9424,-0.94256 -1.2876,0.345 0.345,-1.28752 -0.9426,-0.94257 -1.2875,0.345 -0.345,1.28755 -0.9426,-0.94257 -1.2875,0.345 0.345,-1.28753 -0.9426,-0.94256 1.2876,-0.345 0.345,-1.28755 -0.9426,-0.94253 -1.2876,0.34499 0.3451,-1.28755 -0.9426,-0.94254 -1.2876,0.345 -0.3449,1.28754 -0.9426,-0.94256 -1.2876,0.345 -0.3449,1.28754 0.9425,0.94255 -1.2875,0.34498 -0.345,1.28757 -0.9426,-0.94253 -1.2875,0.34499 0.345,-1.28756 -0.9426,-0.94252 -1.2875,0.34499 -0.3451,1.28751 -0.9425,-0.94253 c 0,0 0,0 -1.2875,0.345"
       style="fill:none;fill-opacity:1;stroke:#c80000;stroke-width:5;stroke-linecap:butt;stroke-linejoin:miter;stroke-miterlimit:4;stroke-dasharray:none;stroke-opacity:1"
       id="path4671"
       sodipodi:nodetypes="ccccccccccccccccccccccccccccccccccccccccccccccccccccccccccccccccccccccccccccccccccccccccccccccccccccccccccccccccccccccccccccccccccccccccccccccccccccccccccccccccccccccccccccccccccccccccccccccccccccccccccccccccccccccccccccccccccccccccccccccccccccccccccccccccccccccccccccccccccccccccccccccccccccccccccccccccccccccccccccccccccccccccccccccccccccccccccccccccccccccccccccccccccccccccccccccccccccccccccccccccccccccccccccccccccccccccccccccccccccccccccccccccccccccccccccccccccccccccccccccccccccccccccccccccccccccccccccccccccccccccccccccccccccccccccccccccccccccccccccccccccccccccccccccccccccccccccccccccccccccccccccccccccccccccccccccccccccccccccccccccccccccccccccccccccccccccccccccccccccccccccccccccccccccccccccccccc" />
    <text
       xml:space="preserve"
       style="font-style:normal;font-variant:normal;font-weight:normal;font-stretch:normal;font-size:197.64918518px;line-height:1.25;font-family:'FFF Forward';-inkscape-font-specification:'FFF Forward, Normal';font-variant-ligatures:normal;font-variant-caps:normal;font-variant-numeric:normal;font-feature-settings:normal;text-align:start;letter-spacing:0px;word-spacing:0px;writing-mode:lr-tb;text-anchor:start;fill:#808080;fill-opacity:1;stroke:none;stroke-width:4.94122934;"
       x="50.67857"
       y="692.49115"
       id="text60"><tspan
         sodipodi:role="line"
         id="tspan58"
         x="50.67857"
         y="692.49115"
         style="font-style:normal;font-variant:normal;font-weight:normal;font-stretch:normal;font-size:197.64918518px;font-family:'FFF Forward';-inkscape-font-specification:'FFF Forward, Normal';font-variant-ligatures:normal;font-variant-caps:normal;font-variant-numeric:normal;font-feature-settings:normal;text-align:start;writing-mode:lr-tb;text-anchor:start;fill:#808080;stroke-width:4.94122934;">Fractal       en</tspan></text>
  </g>
</svg>
